<svg width="460" height="435" viewBox="0 0 460 435" fill="none" xmlns="http://www.w3.org/2000/svg">
<path d="M260.983 115.332C260.114 143.805 263.848 178.105 249.716 204.115C238.659 224.46 217.735 237.127 196.505 244.66C149.827 261.222 86.3624 259.001 58.0824 211.76C46.8155 192.88 47.4915 155.426 69.4781 143.338C80.745 137.173 93.6215 136.53 106.112 134.164C122.497 131.073 134.762 122.897 143.309 108.572C160.032 80.5652 158.76 59.0293 163.927 27.7556C164.909 21.9612 166.712 16.3116 172.86 11.821C178.412 7.12362 185.14 4.02954 192.32 2.87182C198.519 0.721665 205.154 0.135613 211.634 1.16569C225.46 3.6766 237.87 17.5671 248.043 26.3875C258.215 35.2079 262.722 44.1892 262.529 57.9509C262.416 77.0886 261.563 96.2102 260.983 115.332Z" fill="#263238"/>
<path d="M263.478 128.981C262.609 102.809 261.209 76.7184 259.985 50.5792C259.985 50.4182 259.744 50.4021 259.744 50.5792C260.114 72.1151 260.211 93.6349 260.871 115.171C261.514 136.272 263.623 157.921 262.48 179.022C259.776 226.359 209.703 241.907 169.673 236.532C167.854 236.29 167.677 239.219 169.528 239.397C204.81 243.018 247.914 234.149 261.514 196.534C268.902 175.948 264.202 150.404 263.478 128.981Z" fill="#263238"/>
<path d="M166.519 25.4539C166.5 25.363 166.451 25.2812 166.379 25.2224C166.307 25.1637 166.217 25.1316 166.124 25.1316C166.031 25.1316 165.941 25.1637 165.87 25.2224C165.798 25.2812 165.748 25.363 165.73 25.4539C162.511 51.3678 161.304 81.7885 144.806 103.389C136.647 113.952 125.488 121.806 112.791 125.923C102.732 129.142 92.3501 128.707 81.9845 129.946C41.488 134.775 36.9169 188.615 64.4082 211.841C64.9715 212.324 65.8407 211.358 65.2773 210.827C46.1075 193.009 41.6168 162.926 59.9175 142.485C74.5967 126.084 99.8346 133.568 118.763 125.552C157.988 108.942 164.442 63.2625 166.519 25.4539Z" fill="#263238"/>
<path d="M170.687 135.918C128.63 178.555 75.7234 268.256 85.5739 286.428C96.5672 306.692 155.139 246.913 154.914 243.42C154.737 240.781 175.355 186.297 190.984 146.67C206.613 107.042 181.101 125.311 170.687 135.918Z" fill="#F7A9A0"/>
<path d="M155.3 243.42C157.103 237.594 185.141 165.759 193.157 143.032C201.172 120.305 193.736 113.288 170.848 134.099C147.96 154.911 97.7743 224.412 86.3303 261.254C75.2887 296.793 93.5894 296.793 117.733 280.408C137.498 267.065 155.3 243.42 155.3 243.42Z" fill="#F7B2B7"/>
<path d="M196.167 130.767C196.167 131.186 196.086 131.604 196.022 132.055C195.886 132.25 195.706 132.408 195.495 132.518C195.285 132.627 195.052 132.684 194.815 132.683C194.552 132.682 194.295 132.61 194.071 132.473C193.848 132.336 193.666 132.141 193.545 131.908C193.425 131.675 193.371 131.413 193.389 131.152C193.407 130.89 193.496 130.638 193.648 130.424C193.799 130.21 194.006 130.041 194.246 129.937C194.487 129.832 194.751 129.795 195.011 129.831C195.271 129.866 195.516 129.972 195.72 130.137C195.924 130.303 196.078 130.52 196.167 130.767ZM148.443 160.834C148.155 160.831 147.873 160.913 147.632 161.071C147.392 161.229 147.204 161.455 147.092 161.721C146.98 161.986 146.95 162.279 147.006 162.561C147.061 162.844 147.199 163.103 147.403 163.307C147.606 163.51 147.866 163.649 148.148 163.704C148.431 163.759 148.724 163.729 148.989 163.618C149.254 163.506 149.48 163.318 149.638 163.077C149.796 162.837 149.879 162.554 149.876 162.266C149.876 161.887 149.725 161.522 149.456 161.253C149.187 160.985 148.823 160.834 148.443 160.834ZM171.621 160.834C171.334 160.834 171.053 160.919 170.814 161.079C170.576 161.239 170.39 161.466 170.281 161.732C170.172 161.998 170.144 162.29 170.201 162.571C170.259 162.853 170.398 163.111 170.602 163.313C170.807 163.514 171.066 163.651 171.348 163.705C171.63 163.759 171.922 163.728 172.186 163.616C172.451 163.504 172.676 163.316 172.833 163.076C172.99 162.835 173.073 162.554 173.069 162.266C173.069 162.077 173.032 161.889 172.959 161.715C172.886 161.54 172.779 161.381 172.644 161.248C172.509 161.115 172.35 161.009 172.174 160.938C171.998 160.867 171.81 160.832 171.621 160.834ZM160.032 145.978C159.745 145.978 159.464 146.063 159.226 146.223C158.987 146.383 158.801 146.61 158.692 146.876C158.583 147.141 158.555 147.433 158.613 147.715C158.67 147.996 158.809 148.254 159.013 148.456C159.218 148.658 159.477 148.795 159.759 148.849C160.041 148.903 160.333 148.872 160.598 148.76C160.862 148.648 161.087 148.46 161.244 148.219C161.402 147.979 161.484 147.697 161.481 147.41C161.481 147.221 161.443 147.033 161.37 146.858C161.297 146.683 161.19 146.525 161.055 146.392C160.921 146.258 160.761 146.153 160.585 146.082C160.409 146.011 160.221 145.976 160.032 145.978ZM183.226 145.978C182.938 145.975 182.656 146.057 182.415 146.215C182.174 146.373 181.986 146.599 181.874 146.864C181.763 147.13 181.733 147.422 181.788 147.705C181.844 147.987 181.982 148.247 182.185 148.451C182.389 148.654 182.649 148.792 182.931 148.848C183.214 148.903 183.506 148.873 183.771 148.761C184.037 148.65 184.263 148.462 184.421 148.221C184.579 147.98 184.661 147.698 184.658 147.41C184.658 147.03 184.507 146.666 184.239 146.397C183.97 146.129 183.606 145.978 183.226 145.978ZM125.282 191.85C124.994 191.847 124.711 191.93 124.471 192.088C124.23 192.245 124.042 192.472 123.93 192.737C123.819 193.002 123.789 193.295 123.844 193.577C123.899 193.86 124.038 194.119 124.241 194.323C124.445 194.527 124.704 194.665 124.987 194.72C125.269 194.776 125.562 194.746 125.827 194.634C126.093 194.522 126.319 194.334 126.477 194.093C126.635 193.853 126.717 193.571 126.714 193.283C126.714 193.093 126.677 192.906 126.604 192.731C126.531 192.556 126.424 192.397 126.289 192.264C126.154 192.131 125.994 192.026 125.819 191.955C125.643 191.883 125.455 191.848 125.266 191.85H125.282ZM148.459 191.85C148.171 191.847 147.889 191.93 147.648 192.088C147.408 192.245 147.22 192.472 147.108 192.737C146.996 193.002 146.966 193.295 147.022 193.577C147.077 193.86 147.215 194.119 147.419 194.323C147.622 194.527 147.882 194.665 148.165 194.72C148.447 194.776 148.74 194.746 149.005 194.634C149.27 194.522 149.496 194.334 149.654 194.093C149.812 193.853 149.895 193.571 149.892 193.283C149.892 193.093 149.854 192.906 149.781 192.731C149.708 192.556 149.601 192.397 149.467 192.264C149.332 192.131 149.172 192.026 148.996 191.955C148.821 191.883 148.633 191.848 148.443 191.85H148.459ZM171.637 191.85C171.35 191.85 171.069 191.936 170.83 192.095C170.592 192.255 170.406 192.483 170.297 192.748C170.188 193.014 170.16 193.306 170.217 193.587C170.275 193.869 170.414 194.127 170.618 194.329C170.823 194.531 171.082 194.667 171.364 194.721C171.646 194.776 171.938 194.744 172.203 194.632C172.467 194.52 172.692 194.332 172.849 194.092C173.006 193.851 173.089 193.57 173.086 193.283C173.086 193.092 173.047 192.903 172.973 192.727C172.899 192.551 172.791 192.392 172.655 192.258C172.518 192.125 172.356 192.02 172.179 191.95C172.001 191.88 171.812 191.846 171.621 191.85H171.637ZM136.87 176.994C136.583 176.991 136.3 177.073 136.06 177.231C135.819 177.389 135.631 177.615 135.519 177.881C135.408 178.146 135.377 178.439 135.433 178.721C135.488 179.004 135.627 179.263 135.83 179.467C136.034 179.67 136.293 179.809 136.576 179.864C136.858 179.919 137.151 179.889 137.416 179.778C137.681 179.666 137.908 179.478 138.066 179.237C138.223 178.997 138.306 178.714 138.303 178.426C138.303 178.237 138.265 178.049 138.192 177.874C138.119 177.7 138.012 177.541 137.878 177.408C137.743 177.274 137.583 177.169 137.407 177.098C137.232 177.027 137.044 176.992 136.854 176.994H136.87ZM160.048 176.994C159.761 176.994 159.48 177.079 159.242 177.239C159.003 177.399 158.817 177.626 158.708 177.892C158.599 178.158 158.571 178.45 158.629 178.731C158.686 179.013 158.825 179.271 159.03 179.473C159.234 179.674 159.493 179.811 159.775 179.865C160.058 179.919 160.349 179.888 160.614 179.776C160.878 179.664 161.103 179.476 161.26 179.236C161.418 178.995 161.5 178.714 161.497 178.426C161.497 178.236 161.459 178.047 161.385 177.871C161.311 177.695 161.202 177.535 161.066 177.402C160.929 177.268 160.768 177.164 160.59 177.094C160.413 177.023 160.223 176.99 160.032 176.994H160.048ZM125.266 222.834C124.978 222.831 124.695 222.914 124.455 223.072C124.214 223.229 124.026 223.456 123.914 223.721C123.803 223.986 123.773 224.279 123.828 224.561C123.883 224.844 124.022 225.103 124.225 225.307C124.429 225.511 124.688 225.649 124.971 225.704C125.253 225.76 125.546 225.73 125.811 225.618C126.077 225.506 126.303 225.318 126.461 225.077C126.619 224.837 126.701 224.555 126.698 224.267C126.698 223.887 126.547 223.522 126.278 223.254C126.01 222.985 125.645 222.834 125.266 222.834ZM148.443 222.834C148.155 222.831 147.873 222.914 147.632 223.072C147.392 223.229 147.204 223.456 147.092 223.721C146.98 223.986 146.95 224.279 147.006 224.561C147.061 224.844 147.199 225.103 147.403 225.307C147.606 225.511 147.866 225.649 148.148 225.704C148.431 225.76 148.724 225.73 148.989 225.618C149.254 225.506 149.48 225.318 149.638 225.077C149.796 224.837 149.879 224.555 149.876 224.267C149.876 223.887 149.725 223.522 149.456 223.254C149.187 222.985 148.823 222.834 148.443 222.834ZM113.677 208.01C113.389 208.01 113.109 208.096 112.87 208.255C112.632 208.415 112.446 208.642 112.337 208.908C112.228 209.174 112.2 209.466 112.257 209.747C112.314 210.029 112.454 210.287 112.658 210.489C112.862 210.691 113.122 210.827 113.404 210.881C113.686 210.935 113.978 210.904 114.242 210.792C114.507 210.68 114.732 210.492 114.889 210.252C115.046 210.011 115.128 209.73 115.125 209.443C115.125 209.253 115.088 209.066 115.015 208.891C114.942 208.716 114.835 208.557 114.7 208.424C114.565 208.291 114.405 208.186 114.23 208.115C114.054 208.043 113.866 208.008 113.677 208.01ZM136.87 208.01C136.583 208.007 136.3 208.09 136.06 208.248C135.819 208.405 135.631 208.632 135.519 208.897C135.408 209.162 135.377 209.455 135.433 209.737C135.488 210.02 135.627 210.279 135.83 210.483C136.034 210.687 136.293 210.825 136.576 210.88C136.858 210.936 137.151 210.906 137.416 210.794C137.681 210.682 137.908 210.494 138.066 210.253C138.223 210.013 138.306 209.73 138.303 209.443C138.303 209.253 138.265 209.066 138.192 208.891C138.119 208.716 138.012 208.557 137.878 208.424C137.743 208.291 137.583 208.186 137.407 208.115C137.232 208.043 137.044 208.008 136.854 208.01H136.87ZM160.048 208.01C159.761 208.01 159.48 208.096 159.242 208.255C159.003 208.415 158.817 208.642 158.708 208.908C158.599 209.174 158.571 209.466 158.629 209.747C158.686 210.029 158.825 210.287 159.03 210.489C159.234 210.691 159.493 210.827 159.775 210.881C160.058 210.935 160.349 210.904 160.614 210.792C160.878 210.68 161.103 210.492 161.26 210.252C161.418 210.011 161.5 209.73 161.497 209.443C161.497 209.252 161.459 209.063 161.385 208.887C161.311 208.711 161.202 208.552 161.066 208.418C160.929 208.285 160.768 208.18 160.59 208.11C160.413 208.04 160.223 208.006 160.032 208.01H160.048ZM102.104 253.883C101.821 253.886 101.546 253.972 101.313 254.132C101.079 254.291 100.898 254.516 100.792 254.778C100.686 255.04 100.66 255.327 100.717 255.604C100.774 255.881 100.912 256.135 101.113 256.334C101.314 256.532 101.569 256.667 101.846 256.721C102.124 256.775 102.411 256.746 102.672 256.637C102.933 256.528 103.155 256.344 103.312 256.109C103.469 255.874 103.553 255.598 103.553 255.315C103.553 255.123 103.514 254.932 103.439 254.755C103.364 254.578 103.254 254.418 103.116 254.285C102.978 254.151 102.814 254.046 102.635 253.977C102.455 253.908 102.264 253.876 102.072 253.883H102.104ZM125.298 253.883C125.014 253.883 124.737 253.967 124.502 254.124C124.266 254.281 124.083 254.505 123.974 254.767C123.866 255.029 123.837 255.317 123.893 255.595C123.948 255.872 124.084 256.128 124.285 256.328C124.485 256.528 124.74 256.665 125.018 256.72C125.296 256.775 125.584 256.747 125.846 256.639C126.108 256.53 126.331 256.346 126.489 256.111C126.646 255.875 126.73 255.598 126.73 255.315C126.73 255.124 126.692 254.935 126.618 254.759C126.544 254.583 126.436 254.424 126.299 254.291C126.163 254.157 126.001 254.052 125.824 253.982C125.646 253.912 125.456 253.878 125.266 253.883H125.298ZM113.677 239.026C113.389 239.026 113.109 239.112 112.87 239.272C112.632 239.432 112.446 239.659 112.337 239.924C112.228 240.19 112.2 240.482 112.257 240.763C112.314 241.045 112.454 241.303 112.658 241.505C112.862 241.707 113.122 241.844 113.404 241.898C113.686 241.952 113.978 241.921 114.242 241.809C114.507 241.696 114.732 241.508 114.889 241.268C115.046 241.028 115.128 240.746 115.125 240.459C115.125 240.269 115.088 240.082 115.015 239.907C114.942 239.732 114.835 239.573 114.7 239.44C114.565 239.307 114.405 239.202 114.23 239.131C114.054 239.06 113.866 239.024 113.677 239.026ZM136.87 239.026C136.583 239.023 136.3 239.106 136.06 239.264C135.819 239.422 135.631 239.648 135.519 239.913C135.408 240.178 135.377 240.471 135.433 240.754C135.488 241.036 135.627 241.296 135.83 241.499C136.034 241.703 136.293 241.841 136.576 241.896C136.858 241.952 137.151 241.922 137.416 241.81C137.681 241.698 137.908 241.51 138.066 241.27C138.223 241.029 138.306 240.747 138.303 240.459C138.303 240.269 138.265 240.082 138.192 239.907C138.119 239.732 138.012 239.573 137.878 239.44C137.743 239.307 137.583 239.202 137.407 239.131C137.232 239.06 137.044 239.024 136.854 239.026H136.87ZM102.088 284.899C101.805 284.902 101.53 284.989 101.296 285.148C101.063 285.307 100.882 285.532 100.776 285.794C100.67 286.056 100.644 286.344 100.701 286.62C100.758 286.897 100.896 287.151 101.097 287.35C101.298 287.548 101.553 287.683 101.83 287.737C102.108 287.791 102.395 287.762 102.656 287.653C102.917 287.544 103.139 287.361 103.296 287.125C103.453 286.89 103.536 286.614 103.536 286.331C103.537 286.14 103.498 285.951 103.424 285.776C103.35 285.6 103.242 285.44 103.106 285.307C102.969 285.173 102.807 285.068 102.63 284.998C102.452 284.928 102.263 284.894 102.072 284.899H102.088ZM90.499 270.042C90.2112 270.039 89.9289 270.122 89.6883 270.28C89.4476 270.438 89.2594 270.664 89.1478 270.929C89.0362 271.195 89.0061 271.487 89.0615 271.77C89.1169 272.052 89.2552 272.312 89.4587 272.515C89.6623 272.719 89.9219 272.857 90.2044 272.913C90.4868 272.968 90.7794 272.938 91.0448 272.826C91.3101 272.715 91.5362 272.526 91.6941 272.286C91.8521 272.045 91.9347 271.763 91.9316 271.475C91.9316 271.286 91.894 271.098 91.821 270.923C91.748 270.748 91.641 270.59 91.5063 270.456C91.3716 270.323 91.2117 270.218 91.0361 270.147C90.8604 270.076 90.6724 270.04 90.4829 270.042H90.499ZM113.677 270.042C113.389 270.043 113.109 270.128 112.87 270.288C112.632 270.448 112.446 270.675 112.337 270.941C112.228 271.206 112.2 271.498 112.257 271.78C112.314 272.061 112.454 272.319 112.658 272.521C112.862 272.723 113.122 272.86 113.404 272.914C113.686 272.968 113.978 272.937 114.242 272.825C114.507 272.713 114.732 272.525 114.889 272.284C115.046 272.044 115.128 271.762 115.125 271.475C115.125 271.286 115.088 271.098 115.015 270.923C114.942 270.748 114.835 270.59 114.7 270.456C114.565 270.323 114.405 270.218 114.23 270.147C114.054 270.076 113.866 270.04 113.677 270.042Z" fill="white"/>
<path d="M138.673 308.688L142.874 283.498L148.91 238.801C148.91 238.801 134.698 213.982 142.939 196.18C147.107 187.15 183.628 131.089 198.984 119.822C213.47 109.344 234.394 120.563 242.152 128.755C272.186 160.367 286.35 223.14 297.134 308.64L138.673 308.688Z" fill="#F7A9A0"/>
<path d="M143.936 275.596L148.91 238.817C148.91 238.817 134.697 213.998 142.938 196.18C147.107 187.15 183.628 131.089 198.983 119.822C213.469 109.36 234.394 120.563 242.152 128.772C268.162 156.134 282.278 206.9 292.595 275.547L143.936 275.596Z" fill="#F7B2B7"/>
<path d="M205.582 238.061C198.57 237.446 191.523 237.355 184.497 237.787C181.02 238.044 177.56 238.463 174.099 238.962C172.377 239.203 170.655 239.396 168.917 239.574C167.11 239.799 165.283 239.799 163.476 239.574C163.457 239.566 163.436 239.564 163.415 239.567C163.395 239.569 163.375 239.577 163.358 239.589C163.341 239.6 163.327 239.616 163.317 239.635C163.308 239.653 163.303 239.674 163.303 239.694C163.303 239.715 163.308 239.736 163.317 239.754C163.327 239.772 163.341 239.788 163.358 239.8C163.375 239.812 163.395 239.819 163.415 239.822C163.436 239.825 163.457 239.822 163.476 239.815C165.157 240.202 166.861 240.476 168.579 240.636C170.245 240.749 171.918 240.749 173.584 240.636C177.125 240.411 180.65 240.008 184.191 239.751C191.322 239.203 198.452 238.672 205.615 238.64C205.691 238.636 205.763 238.601 205.815 238.544C205.866 238.486 205.892 238.411 205.888 238.334C205.884 238.257 205.849 238.185 205.792 238.134C205.735 238.083 205.659 238.056 205.582 238.061Z" fill="#263238"/>
<path d="M221.517 247.203C215.94 245.595 210.276 244.305 204.552 243.34C201.687 242.857 198.822 242.567 195.925 242.326C194.541 242.213 193.157 242.133 191.773 242.068C190.388 242.004 188.714 242.068 187.185 242.068C187.024 242.068 186.976 242.294 187.185 242.31C188.618 242.455 190.034 242.825 191.451 243.05L195.732 243.694C198.597 244.129 201.462 244.595 204.327 245.014C210.057 245.835 215.771 246.704 221.469 247.718C221.775 247.734 221.839 247.283 221.517 247.203Z" fill="#263238"/>
<path d="M142.874 283.498C143.679 276.03 144.483 268.546 145.433 261.093C146.383 253.641 147.204 246.157 148.202 238.704L148.346 239.236C146.21 236.194 144.453 232.902 143.115 229.433C141.743 225.994 140.75 222.416 140.154 218.762C139.575 215.095 139.413 211.375 139.671 207.672C140.089 203.975 141.009 200.352 142.407 196.904C145.19 190.136 148.646 183.665 152.724 177.589C156.705 171.466 161.048 165.586 165.73 159.981C161.4 165.84 157.344 171.908 153.545 178.104C149.716 184.242 146.436 190.705 143.743 197.419C142.42 200.746 141.564 204.239 141.2 207.801C140.999 211.377 141.177 214.965 141.731 218.504C142.278 222.056 143.211 225.538 144.516 228.886C145.772 232.243 147.437 235.432 149.473 238.382L149.634 238.624V238.898C148.636 246.35 147.461 253.77 146.415 261.222C145.369 268.674 144.081 276.078 142.874 283.498Z" fill="#263238"/>
<path d="M153.545 177.557C153.63 176.556 153.83 175.567 154.141 174.612C154.435 173.659 154.784 172.723 155.187 171.811C155.59 170.91 156.008 170.008 156.491 169.139C156.972 168.263 157.51 167.419 158.1 166.612C157.489 168.528 156.7 170.33 155.928 172.133C155.155 173.936 154.302 175.706 153.545 177.557Z" fill="#263238"/>
<path d="M23.123 434.604H436.007L451.394 357.216H7.7356L23.123 434.604Z" fill="#F7B2B7"/>
<path opacity="0.12" d="M7.75171 357.216L13.2564 384.885H445.874L451.378 357.216H7.75171Z" fill="black"/>
<path d="M0.009552 375.388L459.12 375.388V351.84L0.009552 351.84V375.388Z" fill="#F7B2B7"/>
<path d="M453.921 344.404C452.519 345.779 450.746 346.713 448.819 347.092C449.75 349.433 449.94 352.002 449.364 354.455C448.789 356.907 447.475 359.123 445.6 360.806C446.143 362.027 446.322 363.379 446.115 364.699C445.908 366.02 445.323 367.252 444.433 368.248C443.542 369.245 442.382 369.963 441.093 370.315C439.804 370.668 438.44 370.641 437.166 370.238C436.031 372.375 434.462 374.251 432.558 375.744C430.654 377.238 428.458 378.316 426.112 378.909C423.766 379.502 421.322 379.596 418.937 379.187C416.552 378.777 414.28 377.873 412.266 376.531C411.2 378.432 409.681 380.041 407.845 381.215C406.008 382.389 403.91 383.091 401.737 383.26C399.564 383.428 397.383 383.058 395.387 382.182C393.391 381.306 391.642 379.951 390.296 378.237C386.133 381.258 381.008 382.65 375.889 382.148C370.77 381.647 366.012 379.288 362.515 375.517C360.581 377.296 358.138 378.422 355.529 378.736C352.31 379.283 348.93 378.913 345.775 379.67C341.301 380.748 338.613 383.967 335.152 386.655C331.691 389.343 325.495 390.357 322.163 387.621C318.554 394.016 313.431 399.428 307.243 403.383C301.056 407.337 293.992 409.712 286.672 410.299C274.102 411.265 258.44 405.262 255.463 392.385C252.286 395.128 248.499 397.071 244.418 398.053C240.337 399.034 236.08 399.025 232.003 398.026C227.926 397.027 224.148 395.068 220.982 392.312C217.817 389.555 215.357 386.081 213.807 382.18C203.941 386.301 191.161 389.053 184.835 379.541C182.18 382.608 178.485 384.587 174.46 385.098C170.435 385.609 166.364 384.616 163.026 382.309C152.982 392.948 134.971 405.793 123.093 391.725C112.92 400.851 95.9394 406.871 87.1834 393.335C78.6688 398.34 67.8687 402.847 58.5011 397.922C52.3204 394.703 48.3286 388.104 49.3427 381.36C46.9455 381.81 44.4689 381.547 42.22 380.602C39.9711 379.658 38.0488 378.075 36.6915 376.048C32.6676 377.963 30.3821 373.762 27.2112 371.075C21.111 365.843 13.0471 369.658 6.68935 365.184C-3.61182 357.957 5.24076 346.4 13.4978 342.65C13.1204 340.041 13.3953 337.38 14.2979 334.903C15.2006 332.427 16.7028 330.213 18.6703 328.459C20.6378 326.705 23.0093 325.466 25.5727 324.853C28.1361 324.24 30.8115 324.271 33.3598 324.945C32.7606 320.883 33.4094 316.735 35.2202 313.05C37.031 309.365 39.9184 306.317 43.5 304.31C54.4772 298.129 67.2249 303.521 75.2727 311.923C79.2476 305.883 84.737 300.99 91.1933 297.734C97.6496 294.477 104.847 292.971 112.067 293.365C121.049 293.848 132.991 299.127 137.337 307.497C140.296 305.796 143.491 304.543 146.818 303.779C153.081 302.312 159.628 302.603 165.737 304.62C171.846 306.636 177.279 310.3 181.439 315.207C186.76 313.241 192.516 312.769 198.086 313.842C203.655 314.914 208.825 317.49 213.035 321.291C215.623 317.694 219.061 314.794 223.043 312.848C227.024 310.902 231.425 309.971 235.853 310.139C240.281 310.306 244.599 311.566 248.422 313.807C252.245 316.047 255.455 319.199 257.764 322.981C261.987 318.059 267.277 314.167 273.232 311.601C279.187 309.034 285.65 307.862 292.127 308.172C298.604 308.483 304.925 310.268 310.607 313.392C316.289 316.517 321.183 320.897 324.915 326.2C332.802 312.245 348.705 311.44 363.947 313.146C368.776 313.662 371.995 313.629 376.373 311.617C377.982 310.893 379.367 309.847 380.96 309.155C384.283 307.674 387.83 306.76 391.454 306.451C398.75 305.808 406.07 307.379 412.459 310.957C415.276 312.567 418.157 316.623 420.861 317.734C424.257 319.118 430.518 317.138 434.43 317.653C441.447 318.603 448.916 321.902 453.471 327.552C457.35 332.542 458.959 339.688 453.921 344.404Z" fill="#455A64"/>
<path d="M55.4106 337.853C58.6297 331.174 55.4106 319.231 46.9926 315.802C38.5746 312.374 27.1145 318.876 25.2474 326.232C23.3803 333.588 31.4281 345.885 38.0273 346.77C45.3991 347.704 53.0284 342.762 55.4106 337.853Z" fill="#F7B2B7"/>
<path opacity="0.12" d="M21.7227 328.003C27.6942 333.121 37.6091 337.66 45.7212 337.322C42.5486 341.237 38.9415 344.78 34.9694 347.881C34.7441 348.074 34.9694 348.492 35.2752 348.315C44.5784 342.119 53.7368 330.916 54.1392 319.343C54.1392 319.182 53.93 319.182 53.9139 319.343C53.5194 322.587 52.6007 325.746 51.1937 328.695C47.9746 321.774 38.8645 316.575 31.879 314.933C31.8342 314.918 31.7853 314.922 31.743 314.943C31.7008 314.964 31.6686 315.001 31.6537 315.046C31.6387 315.091 31.6422 315.14 31.6634 315.182C31.6845 315.224 31.7215 315.256 31.7664 315.271C33.9039 316.136 35.9939 317.114 38.0275 318.201C34.1646 321.613 31.2513 328.26 32.1205 333.363C28.5958 331.788 25.2502 329.84 22.1412 327.552C21.9319 327.311 21.4491 327.777 21.7227 328.003ZM46.0753 336.92C42.7343 336.689 39.4385 336.018 36.2731 334.924C41.0549 335.197 45.8001 333.946 49.8256 331.351C48.7085 333.293 47.4553 335.154 46.0753 336.92ZM50.904 329.226C50.6465 329.757 50.3729 330.272 50.0831 330.836C46.9397 332.431 43.54 333.461 40.0395 333.878C43.3645 331.789 45.9576 328.718 47.4596 325.089C48.7302 326.361 49.8831 327.746 50.904 329.226ZM47.2664 324.848C45.9859 327.11 44.4347 329.207 42.647 331.093C41.987 330.948 41.3432 330.755 40.6994 330.546C41.7391 329.767 42.5748 328.749 43.1354 327.577C43.696 326.406 43.9647 325.116 43.9185 323.818C44.8199 323.931 45.7373 324.092 46.6709 324.285L47.2664 324.848ZM40.4097 323.625C40.7035 324.094 40.9412 324.597 41.1179 325.122C41.2652 325.771 41.3248 326.437 41.2949 327.101C40.223 327.254 39.1322 327.21 38.0758 326.973C38.3209 325.86 38.6935 324.78 39.1864 323.754C39.6371 323.657 40.0073 323.641 40.4097 323.625ZM41.0052 323.625C41.9037 323.623 42.8014 323.676 43.6932 323.786C43.4594 324.86 43.1142 325.906 42.6631 326.908L41.4237 327.085C41.6156 326.514 41.6776 325.906 41.6052 325.308C41.5328 324.709 41.3278 324.134 41.0052 323.625ZM42.4699 327.278C41.8688 328.43 41.0614 329.461 40.0878 330.321C39.5005 330.087 38.9257 329.824 38.3656 329.532C38.0692 328.831 37.953 328.068 38.0275 327.311C38.7241 327.635 39.484 327.8 40.2523 327.795C41.0207 327.789 41.7781 327.613 42.4699 327.278ZM38.2851 318.313C41.0334 319.792 43.6039 321.579 45.9466 323.641C42.3029 322.435 38.3364 322.665 34.8567 324.285C35.7176 322.145 36.8714 320.135 38.2851 318.313ZM34.6636 324.751C36.0223 324.235 37.4381 323.884 38.8806 323.705C38.2541 324.43 37.8162 325.299 37.6056 326.234C37.3951 327.169 37.4183 328.141 37.6734 329.065C36.3358 328.283 35.1477 327.269 34.1646 326.071C34.3256 325.653 34.5026 325.218 34.6636 324.784V324.751ZM33.9232 326.779C34.9609 328.06 36.2447 329.121 37.6987 329.897C39.1528 330.674 40.7478 331.152 42.3895 331.302C41.455 332.255 40.4369 333.123 39.3474 333.894C37.931 334.087 36.4663 334.216 34.9211 334.361C34.1324 334.055 33.3115 333.749 32.555 333.411C32.8002 331.173 33.2583 328.963 33.9232 326.812V326.779Z" fill="black"/>
<path d="M196.07 335.358C199.289 328.663 196.07 316.736 187.652 313.291C179.234 309.847 167.758 316.382 165.891 323.721C164.024 331.061 172.088 343.39 178.767 344.243C186.107 345.161 193.688 340.332 196.07 335.358Z" fill="#F7B2B7"/>
<path opacity="0.12" d="M162.382 325.508C168.354 330.61 178.252 335.165 186.381 334.827C183.208 338.743 179.601 342.285 175.629 345.386C175.404 345.579 175.629 345.982 175.935 345.821C185.238 339.624 194.396 328.405 194.799 316.849C194.799 316.819 194.787 316.79 194.766 316.769C194.745 316.748 194.716 316.736 194.686 316.736C194.656 316.736 194.627 316.748 194.606 316.769C194.585 316.79 194.573 316.819 194.573 316.849C194.177 320.092 193.258 323.25 191.853 326.2C188.634 319.279 179.524 314.08 172.538 312.438C172.494 312.423 172.445 312.427 172.402 312.448C172.36 312.469 172.328 312.506 172.313 312.551C172.298 312.596 172.302 312.645 172.323 312.687C172.344 312.729 172.381 312.761 172.426 312.776C174.565 313.638 176.655 314.616 178.687 315.706C174.824 319.118 171.911 325.749 172.78 330.852C169.253 329.289 165.906 327.346 162.801 325.057C162.511 324.816 162.109 325.267 162.382 325.508ZM186.703 334.425C183.361 334.19 180.065 333.513 176.9 332.413C181.679 332.704 186.425 331.451 190.437 328.84C189.335 330.793 188.087 332.66 186.703 334.425ZM191.531 326.731C191.274 327.262 191 327.777 190.71 328.341C187.567 329.936 184.167 330.966 180.667 331.383C183.992 329.294 186.585 326.223 188.087 322.595C189.376 323.858 190.54 325.244 191.563 326.731H191.531ZM187.878 322.337C186.612 324.609 185.066 326.713 183.274 328.598C182.614 328.45 181.964 328.262 181.327 328.035C182.366 327.256 183.202 326.238 183.763 325.066C184.323 323.895 184.592 322.605 184.546 321.307C185.447 321.414 186.365 321.575 187.298 321.79L187.878 322.337ZM181.037 321.13C181.324 321.603 181.561 322.105 181.745 322.627C181.893 323.276 181.953 323.942 181.922 324.607C180.849 324.754 179.758 324.705 178.703 324.462C178.953 323.351 179.325 322.271 179.814 321.243C180.264 321.162 180.667 321.13 181.069 321.13H181.037ZM181.632 321.13C182.531 321.136 183.428 321.19 184.32 321.291C184.092 322.368 183.741 323.416 183.274 324.413C182.872 324.413 182.453 324.558 182.051 324.607C182.249 324.032 182.317 323.421 182.251 322.817C182.184 322.213 181.984 321.631 181.665 321.114L181.632 321.13ZM183.097 324.8C182.492 325.948 181.685 326.979 180.715 327.842C180.128 327.609 179.553 327.345 178.993 327.053C178.698 326.352 178.582 325.589 178.655 324.832C179.357 325.159 180.123 325.324 180.898 325.316C181.672 325.307 182.435 325.125 183.129 324.784L183.097 324.8ZM178.912 315.835C181.66 317.307 184.231 319.089 186.574 321.146C182.928 319.945 178.962 320.181 175.484 321.806C176.354 319.659 177.518 317.644 178.945 315.818L178.912 315.835ZM175.291 322.273C176.647 321.749 178.064 321.398 179.508 321.227C178.881 321.952 178.443 322.82 178.233 323.755C178.022 324.69 178.046 325.663 178.301 326.586C176.978 325.803 175.806 324.789 174.84 323.593L175.291 322.273ZM174.55 324.301C175.591 325.579 176.875 326.637 178.329 327.414C179.782 328.19 181.376 328.67 183.017 328.824C182.078 329.772 181.06 330.639 179.975 331.415C178.558 331.592 177.094 331.737 175.548 331.866H175.468C174.679 331.576 173.858 331.27 173.102 330.932C173.381 328.684 173.877 326.469 174.583 324.317L174.55 324.301Z" fill="black"/>
<path d="M303.395 365.699C310.67 364.089 318.09 354.255 315.66 345.531C313.23 336.807 301.029 331.705 294.076 334.731C287.122 337.757 282.342 351.679 285.722 357.442C289.489 363.831 298.068 366.825 303.395 365.699Z" fill="#F7B2B7"/>
<path opacity="0.12" d="M290.519 333.057C290.148 340.895 292.643 351.502 297.874 357.715C292.841 357.606 287.836 356.931 282.954 355.703C282.648 355.703 282.503 356.122 282.793 356.218C293.384 359.759 307.854 360.113 317.27 353.337C317.284 353.315 317.291 353.289 317.29 353.263C317.289 353.237 317.28 353.211 317.264 353.19C317.248 353.169 317.227 353.154 317.202 353.145C317.177 353.137 317.15 353.137 317.125 353.144C314.319 354.826 311.259 356.038 308.063 356.733C311.604 349.989 310.075 339.559 307.097 333.041C307.082 332.996 307.05 332.959 307.008 332.938C306.966 332.917 306.917 332.913 306.872 332.928C306.827 332.943 306.79 332.975 306.769 333.017C306.748 333.06 306.744 333.109 306.759 333.153C307.419 335.37 307.956 337.622 308.369 339.897C303.299 338.932 296.281 340.718 292.772 344.533C291.831 340.786 291.291 336.95 291.162 333.089C291.146 332.719 290.535 332.687 290.519 333.057ZM298.389 357.731C296.53 354.948 295.042 351.934 293.963 348.766C296.669 352.713 300.566 355.691 305.085 357.264C302.867 357.582 300.63 357.738 298.389 357.731ZM307.451 356.846C306.872 356.975 306.292 357.071 305.713 357.152C302.522 355.652 299.623 353.597 297.15 351.084C300.838 352.432 304.854 352.601 308.642 351.567C308.411 353.36 308.012 355.127 307.451 356.846ZM308.674 351.277C306.106 351.663 303.5 351.728 300.916 351.47C300.624 350.859 300.372 350.23 300.16 349.587C301.412 349.925 302.728 349.955 303.995 349.675C305.262 349.395 306.442 348.812 307.435 347.977C307.907 348.771 308.342 349.592 308.739 350.44C308.723 350.73 308.707 351.003 308.674 351.277ZM305.455 345.112C305.258 345.632 305.005 346.129 304.699 346.593C304.293 347.12 303.804 347.577 303.25 347.945C302.478 347.197 301.851 346.313 301.399 345.338C302.426 344.841 303.506 344.463 304.618 344.211L305.455 345.112ZM305.826 345.595C306.376 346.298 306.881 347.034 307.339 347.8C306.355 348.29 305.318 348.663 304.248 348.911L303.331 348.042C303.9 347.845 304.418 347.523 304.847 347.099C305.276 346.676 305.605 346.162 305.809 345.595H305.826ZM303.846 348.991C302.564 349.233 301.248 349.233 299.967 348.991C299.788 348.389 299.648 347.777 299.548 347.156C299.933 346.487 300.488 345.932 301.158 345.547C301.321 346.283 301.645 346.973 302.107 347.569C302.569 348.164 303.158 348.65 303.83 348.991H303.846ZM308.353 340.187C308.866 343.26 309.028 346.381 308.835 349.49C307.559 345.877 304.943 342.892 301.528 341.153C303.741 340.515 306.033 340.19 308.336 340.187H308.353ZM301.013 341.298C302.261 342.043 303.408 342.947 304.425 343.986C303.468 343.934 302.513 344.12 301.645 344.528C300.777 344.935 300.024 345.55 299.452 346.32C299.252 344.779 299.329 343.214 299.677 341.7L301.013 341.298ZM298.969 341.958C298.591 343.563 298.538 345.227 298.815 346.853C299.091 348.478 299.691 350.032 300.578 351.422C299.252 351.268 297.943 350.993 296.667 350.601C295.653 349.587 294.639 348.525 293.593 347.382C293.335 346.561 293.11 345.772 292.885 344.935C294.806 343.745 296.839 342.742 298.953 341.942L298.969 341.958Z" fill="black"/>
<path d="M414.471 347.961C407.212 346.352 399.776 336.517 402.206 327.793C404.637 319.07 416.837 313.967 423.79 317.009C430.744 320.052 435.524 333.942 432.144 339.704C428.394 346.094 419.799 349.088 414.471 347.961Z" fill="#F7B2B7"/>
<path opacity="0.12" d="M426.72 315.352C426.584 319.212 426.044 323.047 425.11 326.795C421.617 322.981 414.584 321.21 409.514 322.16C409.928 319.884 410.465 317.633 411.123 315.416C411.131 315.394 411.133 315.37 411.132 315.347C411.13 315.324 411.124 315.301 411.113 315.28C411.103 315.259 411.089 315.24 411.071 315.225C411.053 315.21 411.033 315.198 411.01 315.191C410.988 315.183 410.965 315.18 410.942 315.182C410.918 315.184 410.895 315.19 410.874 315.2C410.854 315.211 410.835 315.225 410.82 315.243C410.804 315.261 410.793 315.281 410.785 315.303C407.807 321.822 406.294 332.252 409.819 338.996C406.624 338.301 403.563 337.088 400.758 335.407C400.745 335.398 400.731 335.392 400.716 335.389C400.701 335.386 400.685 335.386 400.67 335.389C400.655 335.392 400.641 335.398 400.629 335.407C400.616 335.415 400.605 335.426 400.597 335.439C400.588 335.451 400.582 335.466 400.579 335.481C400.576 335.496 400.576 335.511 400.579 335.526C400.582 335.541 400.588 335.555 400.597 335.568C400.605 335.58 400.616 335.591 400.629 335.6C410.029 342.392 424.499 342.038 435.106 338.481C435.379 338.384 435.234 337.901 434.945 337.982C430.054 339.193 425.045 339.868 420.008 339.994C425.239 333.765 427.75 323.158 427.364 315.319C427.331 314.949 426.72 314.981 426.72 315.352ZM412.781 339.495C417.3 337.922 421.198 334.944 423.903 330.996C422.831 334.168 421.342 337.182 419.477 339.962C417.237 339.979 414.999 339.834 412.781 339.527V339.495ZM409.24 333.797C413.028 334.831 417.044 334.662 420.732 333.314C418.25 335.828 415.346 337.887 412.153 339.398C411.574 339.302 410.994 339.205 410.431 339.076C409.869 337.391 409.47 335.655 409.24 333.894V333.797ZM409.127 332.686C409.546 331.833 409.98 331.077 410.447 330.224C411.44 331.059 412.62 331.641 413.887 331.921C415.154 332.202 416.47 332.171 417.722 331.833C417.504 332.474 417.251 333.103 416.966 333.717C414.376 333.974 411.765 333.909 409.192 333.523C409.159 333.266 409.159 332.992 409.127 332.719V332.686ZM413.232 326.457C414.345 326.697 415.426 327.07 416.451 327.568C415.992 328.548 415.36 329.437 414.584 330.192C414.037 329.808 413.549 329.348 413.135 328.824C412.829 328.365 412.576 327.874 412.379 327.359C412.684 327.085 412.958 326.779 413.232 326.49V326.457ZM414.551 330.272C414.262 330.578 413.956 330.868 413.65 331.141C412.577 330.894 411.535 330.527 410.544 330.047C410.998 329.273 411.503 328.531 412.057 327.826C412.262 328.398 412.592 328.918 413.024 329.347C413.456 329.776 413.977 330.103 414.551 330.304V330.272ZM416.805 327.745C417.476 328.128 418.032 328.684 418.414 329.355C418.302 329.974 418.157 330.586 417.98 331.19C416.704 331.431 415.393 331.431 414.117 331.19C414.786 330.851 415.374 330.37 415.838 329.781C416.303 329.191 416.632 328.508 416.805 327.777V327.745ZM416.354 323.383C412.942 325.134 410.328 328.122 409.047 331.737C408.854 328.622 409.016 325.496 409.53 322.417C411.84 322.429 414.137 322.765 416.354 323.415V323.383ZM418.205 323.947C418.567 325.453 418.649 327.014 418.447 328.55C417.872 327.78 417.115 327.166 416.244 326.761C415.373 326.356 414.416 326.175 413.457 326.232C414.473 325.187 415.62 324.278 416.869 323.528C417.32 323.705 417.771 323.818 418.205 323.979V323.947ZM425.078 327.166C424.869 327.987 424.627 328.775 424.37 329.612C423.308 330.755 422.31 331.817 421.296 332.831C420.014 333.223 418.699 333.498 417.368 333.652C418.256 332.262 418.856 330.709 419.132 329.083C419.408 327.458 419.356 325.793 418.978 324.188C421.101 324.984 423.144 325.981 425.078 327.166Z" fill="black"/>
<path d="M113.355 377.963C106.096 376.434 98.6757 366.519 101.09 357.796C103.504 349.072 115.721 343.969 122.674 347.012C129.627 350.054 134.424 363.96 131.044 369.706C127.278 376.112 118.699 379.106 113.355 377.963Z" fill="#F7B2B7"/>
<path opacity="0.12" d="M125.604 345.354C125.485 349.216 124.945 353.053 123.994 356.798C120.501 352.983 113.484 351.213 108.413 352.162C108.801 349.893 109.311 347.648 109.943 345.434C109.96 345.389 109.958 345.34 109.939 345.296C109.919 345.252 109.883 345.218 109.838 345.201C109.793 345.184 109.743 345.185 109.7 345.205C109.656 345.224 109.622 345.261 109.605 345.305C106.611 351.824 105.098 362.27 108.639 368.998C105.442 368.306 102.381 367.093 99.577 365.409C99.4482 365.409 99.3195 365.522 99.4321 365.602C108.832 372.394 123.318 372.04 133.909 368.483C134.199 368.386 134.038 367.92 133.748 367.984C128.866 369.212 123.861 369.887 118.827 369.996C124.058 363.767 126.553 353.16 126.183 345.338C126.215 344.967 125.62 345 125.604 345.354ZM111.665 369.497C116.188 367.915 120.09 364.933 122.803 360.983C121.727 364.152 120.239 367.167 118.377 369.948C116.132 369.984 113.889 369.849 111.665 369.545V369.497ZM108.124 363.783C111.91 364.822 115.926 364.659 119.616 363.316C117.137 365.83 114.233 367.885 111.037 369.384L109.315 369.079C108.756 367.37 108.357 365.614 108.124 363.831V363.783ZM108.011 362.689C108.43 361.82 108.864 360.999 109.331 360.21C110.324 361.045 111.504 361.627 112.771 361.907C114.038 362.188 115.354 362.158 116.606 361.82C116.39 362.456 116.138 363.079 115.85 363.687C113.266 363.95 110.66 363.89 108.092 363.51C108.043 363.284 108.043 363.011 108.011 362.737V362.689ZM112.067 356.427C113.18 356.679 114.26 357.057 115.286 357.554C114.823 358.523 114.197 359.405 113.435 360.162C112.889 359.784 112.401 359.328 111.987 358.81C111.668 358.353 111.414 357.854 111.23 357.329C111.584 357.087 111.842 356.782 112.067 356.427ZM113.387 360.258L112.486 361.111C111.414 360.859 110.372 360.492 109.379 360.017C109.846 359.248 110.357 358.506 110.908 357.796C111.107 358.382 111.439 358.916 111.877 359.354C112.315 359.792 112.849 360.123 113.435 360.323L113.387 360.258ZM115.64 357.715C116.308 358.102 116.863 358.657 117.25 359.325C117.153 359.952 117.008 360.571 116.815 361.176C115.538 361.409 114.23 361.409 112.952 361.176C113.631 360.847 114.229 360.372 114.702 359.785C115.175 359.197 115.512 358.513 115.689 357.779L115.64 357.715ZM115.19 353.353C111.782 355.104 109.173 358.093 107.898 361.707C107.706 358.597 107.868 355.476 108.381 352.404C110.72 352.403 113.046 352.744 115.286 353.418L115.19 353.353ZM117.057 353.917C117.405 355.431 117.482 356.995 117.282 358.536C116.71 357.762 115.955 357.144 115.083 356.736C114.212 356.329 113.253 356.145 112.293 356.202C113.316 355.171 114.462 354.268 115.705 353.514L117.057 353.917ZM123.914 357.136C123.704 357.973 123.463 358.745 123.221 359.582C123.221 359.582 123.221 359.582 123.141 359.582C122.095 360.725 121.081 361.787 120.067 362.801C118.783 363.182 117.469 363.451 116.139 363.606C117.026 362.219 117.626 360.668 117.902 359.045C118.179 357.422 118.127 355.76 117.749 354.158C119.914 354.954 121.995 355.962 123.962 357.168L123.914 357.136Z" fill="black"/>
<path d="M85.5737 286.364C95.0379 299.916 120.807 302.459 185.109 315.094C193.994 316.832 223.127 257.359 213.775 255.025C201.929 252.064 155.332 243.147 151.839 242.922C122.4 241.038 79.1515 277.189 85.5737 286.364Z" fill="#F7A9A0"/>
<path d="M200.915 252.08C200.915 252.08 228.164 256.184 241.797 262.783C260.066 271.604 272.202 286.75 276.902 293.365C286.72 307.256 300.852 347.607 289.923 353.707C280.057 359.228 267.695 317.251 267.695 317.251C267.695 317.251 287.364 357.973 274.246 362.431C261.128 366.89 249.539 317.364 249.539 317.364C249.539 317.364 268.854 359.647 254.561 362.109C243.793 363.976 230.772 319.681 230.772 319.681C230.772 319.681 247.077 356.154 236.084 358.536C223.931 361.256 209.365 321.017 209.365 321.017C180.393 322.385 166.035 311.183 156.764 302.008C154.527 299.819 200.915 252.08 200.915 252.08Z" fill="#F7A9A0"/>
<path d="M261.756 302.765C264.235 307.465 266.794 312.197 268.838 317.106C270.882 322.015 272.782 326.989 274.375 332.059C276.597 338.65 278.044 345.478 278.689 352.404C276.628 340.203 269.53 322.53 267.422 317.621C265.313 312.712 263.559 307.722 261.499 302.829C261.547 302.701 261.756 302.652 261.756 302.765Z" fill="#263238"/>
<path d="M243.938 309.863C246.851 316.011 249.974 321.999 252.614 328.26C255.253 334.521 257.185 340.654 259.374 347.06C259.551 347.543 259.229 347.478 259.036 346.979C256.589 340.67 253.837 335.036 251.326 328.743C248.815 322.45 246.497 316.092 243.793 309.927C243.745 309.831 243.906 309.75 243.938 309.863Z" fill="#263238"/>
<path d="M227.537 313.211C232.227 322.52 235.943 332.288 238.627 342.36C238.788 342.843 238.369 342.714 238.192 342.215C234.683 332.461 232.012 324.784 227.215 313.388C227.135 313.211 227.424 312.969 227.537 313.211Z" fill="#263238"/>
<path d="M257.941 273.149C261.118 275.213 264.083 277.586 266.794 280.231C269.547 282.841 272.087 285.667 274.391 288.681C275.566 290.178 276.612 291.755 277.707 293.317C278.801 294.878 279.751 296.536 280.572 298.145C282.39 301.475 283.868 304.981 284.982 308.608C284.032 306.998 283.372 305.211 282.326 303.618L280.974 301.155C280.507 300.35 279.992 299.546 279.509 298.773C277.527 295.598 275.378 292.531 273.071 289.583C270.818 286.621 268.387 283.772 265.877 281.02C264.605 279.635 263.317 278.283 261.981 276.964C260.645 275.644 259.342 274.42 257.941 273.149Z" fill="#263238"/>
<path d="M206.596 252.08L150.262 314.853C150.262 314.853 93.2996 301.767 84.9138 287.168C79.393 277.511 122.272 238.608 154.64 243.147L206.596 252.08Z" fill="#F7B2B7"/>
<path d="M126.698 255.315C126.701 255.603 126.619 255.885 126.461 256.126C126.303 256.367 126.077 256.555 125.811 256.666C125.546 256.778 125.253 256.808 124.971 256.753C124.688 256.697 124.429 256.559 124.225 256.355C124.022 256.152 123.884 255.892 123.828 255.61C123.773 255.327 123.803 255.035 123.914 254.769C124.026 254.504 124.214 254.278 124.455 254.12C124.696 253.962 124.978 253.879 125.266 253.883C125.646 253.883 126.01 254.034 126.279 254.302C126.547 254.571 126.698 254.935 126.698 255.315ZM148.443 253.883C148.16 253.883 147.883 253.967 147.647 254.124C147.412 254.281 147.228 254.505 147.12 254.767C147.011 255.029 146.983 255.317 147.038 255.595C147.094 255.872 147.23 256.128 147.43 256.328C147.631 256.528 147.886 256.665 148.164 256.72C148.442 256.775 148.73 256.747 148.992 256.639C149.253 256.53 149.477 256.347 149.634 256.111C149.792 255.875 149.876 255.598 149.876 255.315C149.876 254.935 149.725 254.571 149.456 254.302C149.188 254.034 148.823 253.883 148.443 253.883ZM171.621 253.883C171.338 253.886 171.063 253.972 170.83 254.132C170.596 254.291 170.415 254.516 170.309 254.778C170.203 255.04 170.177 255.327 170.234 255.604C170.291 255.881 170.429 256.135 170.63 256.334C170.831 256.532 171.086 256.667 171.363 256.721C171.641 256.775 171.928 256.746 172.189 256.637C172.45 256.528 172.673 256.344 172.829 256.109C172.986 255.874 173.07 255.598 173.07 255.315C173.07 255.126 173.032 254.938 172.959 254.763C172.886 254.588 172.779 254.43 172.644 254.296C172.51 254.163 172.35 254.058 172.174 253.987C171.998 253.916 171.81 253.88 171.621 253.883ZM194.815 253.883C194.531 253.883 194.254 253.967 194.019 254.124C193.783 254.281 193.6 254.505 193.491 254.767C193.383 255.029 193.354 255.317 193.41 255.595C193.465 255.872 193.601 256.128 193.802 256.328C194.002 256.528 194.257 256.665 194.535 256.72C194.813 256.775 195.101 256.747 195.363 256.639C195.625 256.53 195.848 256.347 196.006 256.111C196.163 255.875 196.247 255.598 196.247 255.315C196.247 254.935 196.096 254.571 195.828 254.302C195.559 254.034 195.195 253.883 194.815 253.883ZM102.072 284.899C101.789 284.902 101.514 284.989 101.28 285.148C101.047 285.307 100.866 285.532 100.76 285.794C100.654 286.056 100.628 286.344 100.685 286.62C100.742 286.897 100.88 287.151 101.081 287.35C101.282 287.548 101.537 287.683 101.814 287.737C102.092 287.791 102.379 287.762 102.64 287.653C102.901 287.544 103.123 287.361 103.28 287.125C103.437 286.89 103.521 286.614 103.521 286.331C103.521 286.142 103.483 285.954 103.41 285.779C103.337 285.604 103.23 285.446 103.095 285.313C102.961 285.179 102.801 285.074 102.625 285.003C102.449 284.932 102.261 284.897 102.072 284.899ZM125.266 284.899C124.982 284.899 124.705 284.983 124.47 285.14C124.234 285.298 124.051 285.521 123.942 285.783C123.834 286.045 123.805 286.333 123.861 286.611C123.916 286.889 124.052 287.144 124.253 287.344C124.453 287.545 124.708 287.681 124.986 287.736C125.264 287.792 125.552 287.763 125.814 287.655C126.076 287.546 126.299 287.363 126.457 287.127C126.614 286.892 126.698 286.615 126.698 286.331C126.698 285.951 126.547 285.587 126.279 285.318C126.01 285.05 125.646 284.899 125.266 284.899ZM148.443 284.899C148.16 284.899 147.883 284.983 147.647 285.14C147.412 285.298 147.228 285.521 147.12 285.783C147.011 286.045 146.983 286.333 147.038 286.611C147.094 286.889 147.23 287.144 147.43 287.344C147.631 287.545 147.886 287.681 148.164 287.736C148.442 287.792 148.73 287.763 148.992 287.655C149.253 287.546 149.477 287.363 149.634 287.127C149.792 286.892 149.876 286.615 149.876 286.331C149.876 285.951 149.725 285.587 149.456 285.318C149.188 285.05 148.823 284.899 148.443 284.899ZM171.621 284.899C171.338 284.902 171.063 284.989 170.83 285.148C170.596 285.307 170.415 285.532 170.309 285.794C170.203 286.056 170.177 286.344 170.234 286.62C170.291 286.897 170.429 287.151 170.63 287.35C170.831 287.548 171.086 287.683 171.363 287.737C171.641 287.791 171.928 287.762 172.189 287.653C172.45 287.544 172.673 287.361 172.829 287.125C172.986 286.89 173.07 286.614 173.07 286.331C173.07 286.142 173.032 285.954 172.959 285.779C172.886 285.604 172.779 285.446 172.644 285.313C172.51 285.179 172.35 285.074 172.174 285.003C171.998 284.932 171.81 284.897 171.621 284.899ZM113.677 270.043C113.39 270.043 113.109 270.128 112.87 270.288C112.632 270.448 112.446 270.675 112.337 270.941C112.228 271.206 112.2 271.498 112.257 271.78C112.315 272.061 112.454 272.319 112.658 272.521C112.863 272.723 113.122 272.86 113.404 272.914C113.686 272.968 113.978 272.937 114.242 272.825C114.507 272.713 114.732 272.525 114.889 272.284C115.046 272.044 115.129 271.762 115.125 271.475C115.125 271.286 115.088 271.098 115.015 270.923C114.942 270.748 114.835 270.59 114.7 270.456C114.565 270.323 114.406 270.218 114.23 270.147C114.054 270.076 113.866 270.04 113.677 270.043ZM136.871 270.043C136.583 270.039 136.3 270.122 136.06 270.28C135.819 270.438 135.631 270.664 135.519 270.929C135.408 271.195 135.378 271.487 135.433 271.77C135.488 272.052 135.627 272.312 135.83 272.515C136.034 272.719 136.293 272.857 136.576 272.913C136.858 272.968 137.151 272.938 137.416 272.826C137.682 272.715 137.908 272.527 138.066 272.286C138.224 272.045 138.306 271.763 138.303 271.475C138.303 271.286 138.266 271.098 138.193 270.923C138.12 270.748 138.013 270.59 137.878 270.456C137.743 270.323 137.583 270.218 137.408 270.147C137.232 270.076 137.044 270.04 136.854 270.043H136.871ZM160.048 270.043C159.761 270.043 159.48 270.128 159.242 270.288C159.003 270.448 158.818 270.675 158.708 270.941C158.599 271.206 158.572 271.498 158.629 271.78C158.686 272.061 158.826 272.319 159.03 272.521C159.234 272.723 159.494 272.86 159.776 272.914C160.058 272.968 160.349 272.937 160.614 272.825C160.878 272.713 161.103 272.525 161.261 272.284C161.418 272.044 161.5 271.762 161.497 271.475C161.497 271.284 161.459 271.095 161.385 270.919C161.311 270.743 161.202 270.584 161.066 270.451C160.929 270.317 160.768 270.212 160.59 270.142C160.413 270.072 160.223 270.038 160.032 270.043H160.048ZM183.242 270.043C182.954 270.039 182.672 270.122 182.431 270.28C182.191 270.438 182.002 270.664 181.891 270.929C181.779 271.195 181.749 271.487 181.804 271.77C181.86 272.052 181.998 272.312 182.202 272.515C182.405 272.719 182.665 272.857 182.947 272.913C183.23 272.968 183.522 272.938 183.788 272.826C184.053 272.715 184.279 272.527 184.437 272.286C184.595 272.045 184.678 271.763 184.674 271.475C184.674 271.286 184.637 271.098 184.564 270.923C184.491 270.748 184.384 270.59 184.249 270.456C184.115 270.323 183.955 270.218 183.779 270.147C183.603 270.076 183.415 270.04 183.226 270.043H183.242ZM113.677 301.059C113.39 301.059 113.109 301.144 112.87 301.304C112.632 301.464 112.446 301.691 112.337 301.957C112.228 302.222 112.2 302.515 112.257 302.796C112.315 303.077 112.454 303.335 112.658 303.537C112.863 303.739 113.122 303.876 113.404 303.93C113.686 303.984 113.978 303.953 114.242 303.841C114.507 303.729 114.732 303.541 114.889 303.3C115.046 303.06 115.129 302.778 115.125 302.491C115.125 302.302 115.088 302.114 115.015 301.939C114.942 301.764 114.835 301.606 114.7 301.473C114.565 301.339 114.406 301.234 114.23 301.163C114.054 301.092 113.866 301.057 113.677 301.059ZM136.871 301.059C136.583 301.056 136.3 301.138 136.06 301.296C135.819 301.454 135.631 301.68 135.519 301.946C135.408 302.211 135.378 302.503 135.433 302.786C135.488 303.068 135.627 303.328 135.83 303.532C136.034 303.735 136.293 303.873 136.576 303.929C136.858 303.984 137.151 303.954 137.416 303.843C137.682 303.731 137.908 303.543 138.066 303.302C138.224 303.061 138.306 302.779 138.303 302.491C138.303 302.302 138.266 302.114 138.193 301.939C138.12 301.764 138.013 301.606 137.878 301.473C137.743 301.339 137.583 301.234 137.408 301.163C137.232 301.092 137.044 301.057 136.854 301.059H136.871ZM160.064 301.059C159.68 301.059 159.312 301.211 159.04 301.483C158.768 301.755 158.616 302.123 158.616 302.507C158.616 302.697 158.653 302.884 158.726 303.059C158.799 303.234 158.906 303.393 159.041 303.526C159.176 303.659 159.336 303.764 159.511 303.835C159.687 303.906 159.875 303.942 160.064 303.94L161.481 302.33C161.441 301.977 161.274 301.651 161.01 301.414C160.745 301.177 160.403 301.044 160.048 301.043L160.064 301.059Z" fill="white"/>
<path d="M116.043 253.303C121.258 249.521 135.953 240.7 154.672 243.05C154.833 243.05 154.849 243.34 154.672 243.324C140.54 242.921 121.467 250.309 116.043 253.528C116.027 253.609 115.914 253.416 116.043 253.303Z" fill="#263238"/>
<path d="M134.875 304.294C140.701 297.067 146.898 290.162 153.127 283.273C159.356 276.384 165.569 269.463 171.975 262.719C175.58 258.904 179.186 255.074 182.936 251.452C183.033 251.356 183.21 251.452 183.129 251.613C177.319 258.824 171.122 265.777 164.957 272.698C158.793 279.619 152.515 286.508 146.206 293.333C142.633 297.18 138.995 300.962 135.245 304.6C135.052 304.777 134.714 304.503 134.875 304.294Z" fill="#263238"/>
<path d="M206.709 251.259C203.249 250.219 199.721 249.417 196.15 248.861C192.593 248.185 189.02 247.589 185.463 247.01C178.365 245.867 163.444 242.648 150.326 242.68C150.181 242.68 150.922 243.388 151.067 243.388C157.312 243.05 202.058 251.951 205.792 252.209C205.642 252.447 205.507 252.694 205.389 252.949C205.389 253.142 205.502 253.368 205.695 253.239C206.162 252.933 206.484 252.547 206.918 252.209C207.002 252.148 207.065 252.064 207.102 251.968C207.138 251.871 207.146 251.766 207.124 251.665C207.101 251.565 207.05 251.473 206.977 251.401C206.903 251.328 206.81 251.279 206.709 251.259Z" fill="#263238"/>
<path d="M252.421 132.699C306.244 179.65 348.576 237.658 345.775 252.16C340.705 279.169 305.214 280.859 299.774 275.016C277.98 251.404 254.98 205.66 230.064 154.621C207.804 109.006 234.699 117.263 252.421 132.699Z" fill="#F7B2B7"/>
<path d="M242.619 131.25C242.622 131.538 242.539 131.82 242.381 132.061C242.223 132.302 241.997 132.49 241.732 132.601C241.467 132.713 241.174 132.743 240.892 132.688C240.609 132.632 240.349 132.494 240.146 132.291C239.942 132.087 239.804 131.827 239.749 131.545C239.693 131.262 239.723 130.97 239.835 130.704C239.947 130.439 240.135 130.213 240.375 130.055C240.616 129.897 240.898 129.815 241.186 129.818C241.566 129.818 241.931 129.969 242.199 130.237C242.468 130.506 242.619 130.87 242.619 131.25ZM241.186 160.834C240.898 160.831 240.616 160.913 240.375 161.071C240.135 161.229 239.947 161.455 239.835 161.721C239.723 161.986 239.693 162.279 239.749 162.561C239.804 162.844 239.942 163.103 240.146 163.307C240.349 163.51 240.609 163.649 240.892 163.704C241.174 163.759 241.467 163.729 241.732 163.618C241.997 163.506 242.223 163.318 242.381 163.077C242.539 162.837 242.622 162.554 242.619 162.266C242.619 161.886 242.468 161.522 242.199 161.253C241.931 160.985 241.566 160.834 241.186 160.834ZM264.364 160.834C264.077 160.834 263.796 160.919 263.557 161.079C263.319 161.239 263.133 161.466 263.024 161.732C262.915 161.998 262.887 162.29 262.944 162.571C263.002 162.853 263.141 163.111 263.345 163.313C263.55 163.514 263.809 163.651 264.091 163.705C264.373 163.759 264.665 163.728 264.929 163.616C265.194 163.504 265.419 163.316 265.576 163.076C265.733 162.835 265.816 162.554 265.812 162.266C265.812 162.077 265.775 161.889 265.702 161.714C265.629 161.54 265.522 161.381 265.387 161.248C265.252 161.115 265.093 161.009 264.917 160.938C264.741 160.867 264.553 160.832 264.364 160.834ZM229.565 145.978C229.277 145.974 228.995 146.057 228.754 146.215C228.514 146.373 228.326 146.599 228.214 146.864C228.102 147.13 228.072 147.422 228.128 147.705C228.183 147.987 228.321 148.247 228.525 148.451C228.728 148.654 228.988 148.792 229.27 148.848C229.553 148.903 229.846 148.873 230.111 148.761C230.376 148.65 230.602 148.462 230.76 148.221C230.918 147.98 231.001 147.698 230.998 147.41C230.998 147.03 230.847 146.666 230.578 146.397C230.309 146.129 229.945 145.978 229.565 145.978ZM252.743 145.978C252.455 145.974 252.173 146.057 251.932 146.215C251.691 146.373 251.503 146.599 251.392 146.864C251.28 147.13 251.25 147.422 251.305 147.705C251.361 147.987 251.499 148.247 251.703 148.451C251.906 148.654 252.166 148.792 252.448 148.848C252.731 148.903 253.023 148.873 253.289 148.761C253.554 148.65 253.78 148.462 253.938 148.221C254.096 147.98 254.179 147.698 254.175 147.41C254.175 147.036 254.029 146.676 253.767 146.408C253.506 146.141 253.149 145.986 252.775 145.978H252.743ZM264.332 191.85C264.044 191.85 263.764 191.936 263.525 192.095C263.287 192.255 263.101 192.482 262.992 192.748C262.883 193.014 262.855 193.306 262.912 193.587C262.969 193.869 263.109 194.127 263.313 194.329C263.517 194.531 263.777 194.667 264.059 194.721C264.341 194.775 264.633 194.744 264.897 194.632C265.162 194.52 265.387 194.332 265.544 194.092C265.701 193.851 265.783 193.57 265.78 193.283C265.78 192.905 265.632 192.544 265.366 192.275C265.101 192.007 264.741 191.854 264.364 191.85H264.332ZM287.525 191.85C287.238 191.847 286.955 191.93 286.715 192.087C286.474 192.245 286.286 192.472 286.174 192.737C286.063 193.002 286.032 193.295 286.088 193.577C286.143 193.86 286.282 194.119 286.485 194.323C286.689 194.526 286.948 194.665 287.231 194.72C287.513 194.776 287.806 194.745 288.071 194.634C288.336 194.522 288.563 194.334 288.721 194.093C288.878 193.853 288.961 193.57 288.958 193.283C288.958 193.093 288.92 192.906 288.847 192.731C288.774 192.556 288.667 192.397 288.533 192.264C288.398 192.131 288.238 192.026 288.062 191.954C287.887 191.883 287.699 191.848 287.509 191.85H287.525ZM310.204 191.931C309.93 192.035 309.694 192.22 309.527 192.461C309.36 192.703 309.271 192.989 309.271 193.283C309.271 193.663 309.421 194.027 309.69 194.296C309.959 194.564 310.323 194.715 310.703 194.715C310.951 194.714 311.195 194.65 311.412 194.529C311.629 194.408 311.811 194.234 311.942 194.023L310.204 191.931ZM252.743 176.994C252.455 176.991 252.173 177.073 251.932 177.231C251.691 177.389 251.503 177.615 251.392 177.881C251.28 178.146 251.25 178.439 251.305 178.721C251.361 179.004 251.499 179.263 251.703 179.467C251.906 179.67 252.166 179.809 252.448 179.864C252.731 179.919 253.023 179.889 253.289 179.778C253.554 179.666 253.78 179.478 253.938 179.237C254.096 178.996 254.179 178.714 254.175 178.426C254.175 178.052 254.029 177.692 253.767 177.425C253.506 177.157 253.149 177.002 252.775 176.994H252.743ZM275.92 176.994C275.633 176.994 275.353 177.079 275.114 177.239C274.875 177.399 274.69 177.626 274.581 177.892C274.472 178.158 274.444 178.45 274.501 178.731C274.558 179.013 274.698 179.271 274.902 179.472C275.106 179.674 275.366 179.811 275.648 179.865C275.93 179.919 276.222 179.888 276.486 179.776C276.75 179.664 276.976 179.476 277.133 179.236C277.29 178.995 277.372 178.714 277.369 178.426C277.369 178.049 277.22 177.687 276.955 177.419C276.69 177.151 276.33 176.998 275.953 176.994H275.92ZM297.891 177.67C297.754 177.899 297.682 178.16 297.682 178.426C297.68 178.616 297.715 178.804 297.786 178.98C297.857 179.155 297.962 179.315 298.096 179.45C298.229 179.584 298.387 179.691 298.562 179.764C298.737 179.837 298.925 179.875 299.114 179.875C299.32 179.878 299.524 179.834 299.71 179.746C299.146 179.038 298.535 178.362 297.923 177.67H297.891ZM264.975 222.963C265.281 223.494 265.555 224.025 265.845 224.572C265.852 224.492 265.852 224.411 265.845 224.331C265.857 224.041 265.781 223.755 265.625 223.51C265.47 223.266 265.243 223.075 264.975 222.963ZM287.509 222.834C287.221 222.831 286.939 222.914 286.698 223.072C286.458 223.229 286.27 223.456 286.158 223.721C286.046 223.986 286.016 224.279 286.072 224.561C286.127 224.844 286.265 225.103 286.469 225.307C286.673 225.51 286.932 225.649 287.215 225.704C287.497 225.76 287.79 225.73 288.055 225.618C288.32 225.506 288.546 225.318 288.704 225.077C288.862 224.837 288.945 224.554 288.942 224.267C288.942 223.887 288.791 223.522 288.522 223.254C288.254 222.985 287.889 222.834 287.509 222.834ZM310.687 222.834C310.399 222.831 310.117 222.914 309.876 223.072C309.636 223.229 309.447 223.456 309.336 223.721C309.224 223.986 309.194 224.279 309.249 224.561C309.305 224.844 309.443 225.103 309.647 225.307C309.85 225.51 310.11 225.649 310.392 225.704C310.675 225.76 310.967 225.73 311.233 225.618C311.498 225.506 311.724 225.318 311.882 225.077C312.04 224.837 312.123 224.554 312.119 224.267C312.12 223.895 311.975 223.538 311.717 223.27C311.459 223.003 311.107 222.847 310.735 222.834H310.687ZM333.317 222.931C333.018 223.066 332.774 223.299 332.624 223.591C332.474 223.883 332.429 224.218 332.494 224.54C332.56 224.862 332.732 225.152 332.984 225.362C333.236 225.573 333.552 225.692 333.881 225.699C334.242 225.7 334.591 225.568 334.863 225.329C334.412 224.572 333.897 223.768 333.366 222.963L333.317 222.931ZM275.904 207.978C275.617 207.978 275.337 208.063 275.098 208.223C274.859 208.383 274.674 208.61 274.565 208.876C274.455 209.142 274.428 209.434 274.485 209.715C274.542 209.997 274.682 210.255 274.886 210.456C275.09 210.658 275.35 210.795 275.632 210.849C275.914 210.903 276.206 210.872 276.47 210.76C276.734 210.648 276.96 210.46 277.117 210.22C277.274 209.979 277.356 209.698 277.353 209.41C277.345 209.042 277.195 208.69 276.934 208.429C276.673 208.168 276.322 208.018 275.953 208.01L275.904 207.978ZM299.098 207.978C298.81 207.975 298.528 208.057 298.287 208.215C298.047 208.373 297.859 208.599 297.747 208.865C297.635 209.13 297.605 209.423 297.661 209.705C297.716 209.988 297.854 210.247 298.058 210.451C298.261 210.654 298.521 210.793 298.803 210.848C299.086 210.903 299.379 210.873 299.644 210.762C299.909 210.65 300.135 210.462 300.293 210.221C300.451 209.98 300.534 209.698 300.531 209.41C300.523 209.044 300.375 208.695 300.117 208.435C299.86 208.174 299.512 208.022 299.146 208.01L299.098 207.978ZM323.708 209.121L323.032 208.235C322.813 208.106 322.562 208.04 322.308 208.042C321.952 208.08 321.623 208.248 321.384 208.514C321.144 208.78 321.012 209.125 321.012 209.483C321.012 209.841 321.144 210.186 321.384 210.452C321.623 210.718 321.952 210.886 322.308 210.923C322.688 210.919 323.052 210.768 323.322 210.5C323.592 210.233 323.748 209.871 323.757 209.491C323.766 209.378 323.766 209.265 323.757 209.153L323.708 209.121ZM287.509 253.883C287.226 253.883 286.949 253.967 286.713 254.124C286.478 254.281 286.294 254.505 286.186 254.767C286.077 255.029 286.049 255.317 286.104 255.594C286.16 255.872 286.296 256.128 286.496 256.328C286.697 256.528 286.952 256.665 287.23 256.72C287.508 256.775 287.796 256.747 288.057 256.638C288.319 256.53 288.543 256.346 288.7 256.111C288.858 255.875 288.942 255.598 288.942 255.315C288.942 254.935 288.791 254.571 288.522 254.302C288.254 254.033 287.889 253.883 287.509 253.883ZM310.687 253.883C310.404 253.883 310.127 253.967 309.891 254.124C309.656 254.281 309.472 254.505 309.364 254.767C309.255 255.029 309.227 255.317 309.282 255.594C309.337 255.872 309.474 256.128 309.674 256.328C309.874 256.528 310.13 256.665 310.408 256.72C310.685 256.775 310.973 256.747 311.235 256.638C311.497 256.53 311.721 256.346 311.878 256.111C312.035 255.875 312.119 255.598 312.119 255.315C312.12 254.943 311.975 254.586 311.717 254.319C311.459 254.051 311.107 253.895 310.735 253.883H310.687ZM333.881 253.883C333.597 253.883 333.32 253.967 333.085 254.124C332.849 254.281 332.666 254.505 332.557 254.767C332.449 255.029 332.42 255.317 332.476 255.594C332.531 255.872 332.667 256.128 332.868 256.328C333.068 256.528 333.323 256.665 333.601 256.72C333.879 256.775 334.167 256.747 334.429 256.638C334.691 256.53 334.914 256.346 335.072 256.111C335.229 255.875 335.313 255.598 335.313 255.315C335.313 254.943 335.169 254.586 334.911 254.319C334.653 254.051 334.3 253.895 333.929 253.883H333.881ZM275.937 239.026C275.649 239.026 275.369 239.112 275.13 239.272C274.892 239.431 274.706 239.659 274.597 239.924C274.488 240.19 274.46 240.482 274.517 240.763C274.574 241.045 274.714 241.303 274.918 241.505C275.122 241.707 275.382 241.843 275.664 241.898C275.946 241.952 276.238 241.921 276.502 241.809C276.767 241.696 276.992 241.508 277.149 241.268C277.306 241.028 277.388 240.746 277.385 240.459C277.385 240.079 277.234 239.714 276.966 239.446C276.697 239.177 276.333 239.026 275.953 239.026H275.937ZM299.13 239.026C298.842 239.023 298.56 239.106 298.32 239.264C298.079 239.422 297.891 239.648 297.779 239.913C297.667 240.178 297.637 240.471 297.693 240.753C297.748 241.036 297.886 241.296 298.09 241.499C298.294 241.703 298.553 241.841 298.836 241.896C299.118 241.952 299.411 241.922 299.676 241.81C299.941 241.698 300.167 241.51 300.325 241.27C300.483 241.029 300.566 240.747 300.563 240.459C300.563 240.082 300.414 239.72 300.149 239.451C299.884 239.183 299.524 239.031 299.146 239.026H299.13ZM322.308 239.026C322.021 239.026 321.74 239.112 321.502 239.272C321.263 239.431 321.077 239.659 320.968 239.924C320.859 240.19 320.831 240.482 320.889 240.763C320.946 241.045 321.085 241.303 321.289 241.505C321.494 241.707 321.753 241.843 322.035 241.898C322.317 241.952 322.609 241.921 322.874 241.809C323.138 241.696 323.363 241.508 323.52 241.268C323.678 241.028 323.76 240.746 323.757 240.459C323.757 240.079 323.606 239.714 323.337 239.446C323.068 239.177 322.704 239.026 322.324 239.026H322.308ZM299.13 270.042C298.842 270.039 298.56 270.122 298.32 270.28C298.079 270.438 297.891 270.664 297.779 270.929C297.667 271.195 297.637 271.487 297.693 271.77C297.748 272.052 297.886 272.312 298.09 272.515C298.294 272.719 298.553 272.857 298.836 272.913C299.118 272.968 299.411 272.938 299.676 272.826C299.941 272.715 300.167 272.526 300.325 272.286C300.483 272.045 300.566 271.763 300.563 271.475C300.563 271.098 300.414 270.736 300.149 270.468C299.884 270.199 299.524 270.047 299.146 270.042H299.13ZM322.308 270.042C322.021 270.042 321.74 270.128 321.502 270.288C321.263 270.448 321.077 270.675 320.968 270.941C320.859 271.206 320.831 271.498 320.889 271.78C320.946 272.061 321.085 272.319 321.289 272.521C321.494 272.723 321.753 272.86 322.035 272.914C322.317 272.968 322.609 272.937 322.874 272.825C323.138 272.713 323.363 272.524 323.52 272.284C323.678 272.044 323.76 271.762 323.757 271.475C323.757 271.095 323.606 270.731 323.337 270.462C323.068 270.193 322.704 270.042 322.324 270.042H322.308Z" fill="white"/>
<path d="M290.889 264.474C286.946 258.357 283.228 252.048 279.461 245.803C275.695 239.558 271.961 233.28 268.291 226.971C261.048 214.497 254.32 201.749 247.833 188.873C244.164 181.581 240.429 174.386 236.937 166.95C236.824 166.709 236.438 166.95 236.518 167.127C239.898 175.712 243.536 184.157 247.431 192.462L247.27 192.253C246.401 191.078 245.532 189.903 244.679 188.712C242.989 186.362 241.46 183.963 239.85 181.501C239.737 181.308 239.432 181.501 239.544 181.694C241.285 185.044 243.254 188.27 245.435 191.351C246.501 192.791 247.651 194.167 248.88 195.472L248.992 195.568C250.779 199.27 252.598 202.956 254.513 206.61C261.194 219.588 268.521 232.223 276.468 244.467C278.721 247.895 280.99 251.307 283.356 254.671C285.722 258.035 288.185 261.287 290.696 264.602C290.728 264.812 291.018 264.683 290.889 264.474Z" fill="#263238"/>
<path d="M308.691 269.785C298.486 255.154 303.605 226.053 314.872 156.198C316.481 146.541 389.781 145.785 388.654 156.198C387.237 169.3 374.168 221.08 370.772 228.629C354.081 265.97 315.596 279.716 308.691 269.785Z" fill="#F7A9A0"/>
<path d="M386.272 165.212C389.314 157.39 403.301 114.028 403.977 103.035C404.653 92.0414 404.412 60.2526 396.042 58.8684C387.672 57.4842 387.012 66.7874 387.012 66.7874C387.012 66.7874 384.775 53.3798 376.228 52.736C367.681 52.0922 367.118 66.6265 367.118 66.6265C367.118 66.6265 363.818 53.0257 355.239 53.0096C346.661 52.9935 348.673 67.6727 348.673 67.6727C348.673 67.6727 346.226 55.102 339.16 58.0153C330.662 61.5564 337.776 84.235 336.086 96.3067C335.699 99.0591 324.368 151.354 324.368 151.354L386.272 165.212Z" fill="#F7A9A0"/>
<path d="M348.447 66.4172C353.646 83.1083 353.034 91.301 348.592 107.912C348.511 108.25 348.978 108.443 349.091 108.121C354.917 92.2345 357.138 82.0621 349.252 66.1275C348.865 65.3388 348.205 65.6285 348.447 66.4172Z" fill="#263238"/>
<path d="M366.716 65.3066C370.595 83.1084 370.015 92.0092 366.716 109.763C366.716 110.004 367.102 110.117 367.166 109.859C371.995 92.7335 373.943 82.4967 367.73 65.2584C367.359 64.4697 366.539 64.5019 366.716 65.3066Z" fill="#263238"/>
<path d="M386.851 67.6727C389.362 85.1847 389.137 95.0352 383.632 111.775C383.6 111.856 383.601 111.946 383.636 112.026C383.671 112.106 383.736 112.169 383.817 112.201C383.898 112.233 383.989 112.232 384.069 112.197C384.149 112.162 384.211 112.097 384.243 112.016C391.503 95.4214 391.873 83.221 387.366 67.6566C387.076 66.5942 386.69 66.5782 386.851 67.6727Z" fill="#263238"/>
<path d="M313.809 165.035C313.809 165.035 307.999 143.934 307.5 134.083C307.001 124.233 318.622 86.9069 326.815 89.0154C337.422 91.6712 334.959 114.559 332.287 125.601C332.287 125.601 356.817 131.717 358.603 148.521C360.39 165.325 313.809 165.035 313.809 165.035Z" fill="#F7A9A0"/>
<path d="M329.519 90.6411C337.438 100.025 332.995 114.302 331.128 125.214C331.093 125.374 331.097 125.539 331.139 125.697C331.182 125.855 331.262 126 331.372 126.12C331.483 126.24 331.621 126.332 331.775 126.387C331.928 126.442 332.093 126.46 332.255 126.438C342.363 129.657 355.69 137.206 358.973 147.909C358.995 147.966 359.035 148.014 359.089 148.044C359.142 148.074 359.204 148.084 359.264 148.073C359.324 148.061 359.378 148.029 359.416 147.981C359.454 147.933 359.474 147.874 359.472 147.813C357.509 135.837 344.986 127.371 333.719 124.538C335.731 113.368 339.562 98.7854 329.519 90.5606C329.535 90.5123 329.454 90.5767 329.519 90.6411Z" fill="#263238"/>
<path d="M389.813 179.859L304.747 204.002C304.747 204.002 287.783 259.757 298.567 273.744C310.107 288.697 363.657 265.52 374.313 232.942L389.813 179.859Z" fill="#F7B2B7"/>
<path d="M358.539 193.283C358.539 193.566 358.455 193.843 358.298 194.078C358.14 194.314 357.916 194.498 357.655 194.606C357.393 194.715 357.105 194.743 356.827 194.688C356.549 194.632 356.294 194.496 356.094 194.296C355.893 194.095 355.757 193.84 355.701 193.562C355.646 193.284 355.675 192.996 355.783 192.734C355.891 192.473 356.075 192.249 356.311 192.092C356.546 191.934 356.823 191.85 357.106 191.85C357.486 191.85 357.851 192.001 358.119 192.27C358.388 192.538 358.539 192.903 358.539 193.283ZM380.284 191.85C379.997 191.85 379.716 191.936 379.478 192.095C379.239 192.255 379.053 192.482 378.944 192.748C378.835 193.014 378.807 193.306 378.865 193.587C378.922 193.869 379.061 194.127 379.266 194.329C379.47 194.531 379.729 194.667 380.012 194.721C380.294 194.775 380.585 194.744 380.85 194.632C381.114 194.52 381.339 194.332 381.496 194.092C381.654 193.851 381.736 193.57 381.733 193.283C381.733 193.093 381.695 192.906 381.622 192.731C381.549 192.556 381.442 192.397 381.307 192.264C381.173 192.131 381.013 192.026 380.837 191.955C380.662 191.883 380.474 191.848 380.284 191.85ZM310.735 222.834C310.447 222.831 310.165 222.914 309.924 223.072C309.684 223.229 309.495 223.456 309.384 223.721C309.272 223.986 309.242 224.279 309.298 224.561C309.353 224.844 309.491 225.103 309.695 225.307C309.898 225.511 310.158 225.649 310.44 225.704C310.723 225.76 311.016 225.73 311.281 225.618C311.546 225.506 311.772 225.318 311.93 225.077C312.088 224.837 312.171 224.555 312.168 224.267C312.168 223.887 312.017 223.522 311.748 223.254C311.479 222.985 311.115 222.834 310.735 222.834ZM333.929 222.834C333.641 222.831 333.359 222.914 333.118 223.072C332.877 223.229 332.689 223.456 332.578 223.721C332.466 223.986 332.436 224.279 332.491 224.561C332.547 224.844 332.685 225.103 332.889 225.307C333.092 225.511 333.352 225.649 333.634 225.704C333.917 225.76 334.209 225.73 334.475 225.618C334.74 225.506 334.966 225.318 335.124 225.077C335.282 224.837 335.365 224.555 335.361 224.267C335.361 223.887 335.21 223.522 334.942 223.254C334.673 222.985 334.309 222.834 333.929 222.834ZM357.106 222.834C356.819 222.831 356.536 222.914 356.296 223.072C356.055 223.229 355.867 223.456 355.755 223.721C355.644 223.986 355.614 224.279 355.669 224.561C355.724 224.844 355.863 225.103 356.066 225.307C356.27 225.511 356.529 225.649 356.812 225.704C357.094 225.76 357.387 225.73 357.652 225.618C357.918 225.506 358.144 225.318 358.302 225.077C358.46 224.837 358.542 224.555 358.539 224.267C358.539 223.887 358.388 223.522 358.119 223.254C357.851 222.985 357.486 222.834 357.106 222.834ZM322.324 207.978C322.037 207.978 321.756 208.063 321.517 208.223C321.279 208.383 321.093 208.61 320.984 208.876C320.875 209.142 320.847 209.434 320.904 209.715C320.962 209.997 321.101 210.255 321.305 210.457C321.51 210.658 321.769 210.795 322.051 210.849C322.333 210.903 322.625 210.872 322.89 210.76C323.154 210.648 323.379 210.46 323.536 210.22C323.693 209.979 323.776 209.698 323.773 209.41C323.764 209.033 323.607 208.675 323.336 208.413C323.065 208.15 322.701 208.006 322.324 208.01V207.978ZM345.518 207.978C345.23 207.975 344.948 208.057 344.707 208.215C344.466 208.373 344.278 208.599 344.166 208.865C344.055 209.13 344.025 209.423 344.08 209.705C344.136 209.988 344.274 210.247 344.477 210.451C344.681 210.654 344.94 210.793 345.223 210.848C345.505 210.903 345.798 210.873 346.063 210.762C346.329 210.65 346.555 210.462 346.713 210.221C346.871 209.981 346.953 209.698 346.95 209.41C346.946 209.219 346.904 209.031 346.826 208.857C346.748 208.683 346.636 208.525 346.497 208.395C346.357 208.265 346.193 208.163 346.014 208.097C345.835 208.031 345.644 208.001 345.453 208.01L345.518 207.978ZM368.695 207.978C368.408 207.978 368.127 208.063 367.889 208.223C367.65 208.383 367.465 208.61 367.356 208.876C367.246 209.142 367.219 209.434 367.276 209.715C367.333 209.997 367.473 210.255 367.677 210.457C367.881 210.658 368.141 210.795 368.423 210.849C368.705 210.903 368.997 210.872 369.261 210.76C369.525 210.648 369.75 210.46 369.908 210.22C370.065 209.979 370.147 209.698 370.144 209.41C370.135 209.033 369.979 208.675 369.707 208.413C369.436 208.15 369.073 208.006 368.695 208.01V207.978ZM310.751 253.85C310.468 253.85 310.191 253.934 309.955 254.092C309.72 254.249 309.536 254.473 309.428 254.735C309.319 254.996 309.291 255.284 309.346 255.562C309.401 255.84 309.538 256.095 309.738 256.296C309.939 256.496 310.194 256.633 310.472 256.688C310.75 256.743 311.038 256.715 311.299 256.606C311.561 256.498 311.785 256.314 311.942 256.079C312.1 255.843 312.184 255.566 312.184 255.283C312.175 254.906 312.018 254.547 311.747 254.285C311.476 254.023 311.112 253.878 310.735 253.883L310.751 253.85ZM333.945 253.85C333.662 253.85 333.385 253.934 333.149 254.092C332.913 254.249 332.73 254.473 332.621 254.735C332.513 254.996 332.485 255.284 332.54 255.562C332.595 255.84 332.732 256.095 332.932 256.296C333.132 256.496 333.388 256.633 333.665 256.688C333.943 256.743 334.231 256.715 334.493 256.606C334.755 256.498 334.979 256.314 335.136 256.079C335.293 255.843 335.377 255.566 335.377 255.283C335.369 254.906 335.212 254.547 334.941 254.285C334.67 254.023 334.306 253.878 333.929 253.883L333.945 253.85ZM357.123 253.85C356.839 253.85 356.562 253.934 356.327 254.092C356.091 254.249 355.908 254.473 355.799 254.735C355.691 254.996 355.662 255.284 355.718 255.562C355.773 255.84 355.909 256.095 356.11 256.296C356.31 256.496 356.565 256.633 356.843 256.688C357.121 256.743 357.409 256.715 357.671 256.606C357.933 256.498 358.156 256.314 358.314 256.079C358.471 255.843 358.555 255.566 358.555 255.283C358.547 254.906 358.39 254.547 358.119 254.285C357.847 254.023 357.484 253.878 357.106 253.883L357.123 253.85ZM299.178 238.994C298.891 238.991 298.608 239.074 298.368 239.232C298.127 239.389 297.939 239.616 297.827 239.881C297.716 240.146 297.686 240.439 297.741 240.721C297.796 241.004 297.935 241.263 298.138 241.467C298.342 241.671 298.601 241.809 298.884 241.864C299.166 241.92 299.459 241.89 299.724 241.778C299.99 241.666 300.216 241.478 300.374 241.237C300.531 240.997 300.614 240.714 300.611 240.427C300.607 240.238 300.566 240.053 300.49 239.881C300.414 239.709 300.305 239.553 300.169 239.423C300.033 239.293 299.872 239.191 299.697 239.123C299.522 239.055 299.334 239.022 299.146 239.026L299.178 238.994ZM322.356 238.994C322.069 238.994 321.788 239.08 321.55 239.239C321.311 239.399 321.125 239.626 321.016 239.892C320.907 240.158 320.879 240.45 320.937 240.731C320.994 241.013 321.133 241.271 321.338 241.473C321.542 241.675 321.801 241.811 322.083 241.865C322.366 241.919 322.657 241.888 322.922 241.776C323.186 241.664 323.411 241.476 323.568 241.236C323.726 240.995 323.808 240.714 323.805 240.427C323.801 240.237 323.759 240.05 323.682 239.877C323.605 239.704 323.495 239.547 323.357 239.417C323.219 239.287 323.057 239.185 322.88 239.118C322.702 239.051 322.513 239.02 322.324 239.026L322.356 238.994ZM345.55 238.994C345.262 238.991 344.98 239.074 344.739 239.232C344.498 239.389 344.31 239.616 344.199 239.881C344.087 240.146 344.057 240.439 344.112 240.721C344.168 241.004 344.306 241.263 344.51 241.467C344.713 241.671 344.973 241.809 345.255 241.864C345.538 241.92 345.83 241.89 346.096 241.778C346.361 241.666 346.587 241.478 346.745 241.237C346.903 240.997 346.986 240.714 346.982 240.427C346.978 240.233 346.935 240.042 346.855 239.865C346.775 239.689 346.661 239.53 346.518 239.399C346.375 239.268 346.207 239.168 346.024 239.104C345.841 239.039 345.647 239.013 345.453 239.026L345.55 238.994ZM368.727 238.994C368.44 238.994 368.16 239.08 367.921 239.239C367.682 239.399 367.497 239.626 367.388 239.892C367.279 240.158 367.251 240.45 367.308 240.731C367.365 241.013 367.505 241.271 367.709 241.473C367.913 241.675 368.173 241.811 368.455 241.865C368.737 241.919 369.029 241.888 369.293 241.776C369.558 241.664 369.783 241.476 369.94 241.236C370.097 240.995 370.179 240.714 370.176 240.427C370.172 240.237 370.13 240.05 370.053 239.877C369.976 239.704 369.866 239.547 369.728 239.417C369.59 239.287 369.428 239.185 369.251 239.118C369.074 239.051 368.885 239.02 368.695 239.026L368.727 238.994ZM299.178 270.01C298.891 270.007 298.608 270.09 298.368 270.248C298.127 270.406 297.939 270.632 297.827 270.897C297.716 271.162 297.686 271.455 297.741 271.738C297.796 272.02 297.935 272.28 298.138 272.483C298.342 272.687 298.601 272.825 298.884 272.88C299.166 272.936 299.459 272.906 299.724 272.794C299.99 272.682 300.216 272.494 300.374 272.254C300.531 272.013 300.614 271.731 300.611 271.443C300.607 271.255 300.566 271.069 300.49 270.897C300.414 270.725 300.305 270.569 300.169 270.439C300.033 270.309 299.872 270.207 299.697 270.139C299.522 270.071 299.334 270.038 299.146 270.042L299.178 270.01ZM322.356 270.01C322.069 270.01 321.788 270.096 321.55 270.256C321.311 270.416 321.125 270.643 321.016 270.908C320.907 271.174 320.879 271.466 320.937 271.747C320.994 272.029 321.133 272.287 321.338 272.489C321.542 272.691 321.801 272.828 322.083 272.882C322.366 272.936 322.657 272.905 322.922 272.793C323.186 272.68 323.411 272.492 323.568 272.252C323.726 272.012 323.808 271.73 323.805 271.443C323.801 271.253 323.759 271.066 323.682 270.893C323.605 270.72 323.495 270.564 323.357 270.433C323.219 270.303 323.057 270.201 322.88 270.134C322.702 270.067 322.513 270.036 322.324 270.042L322.356 270.01Z" fill="white"/>
<path d="M307.532 223.333C317.028 221.176 326.396 218.504 335.763 215.833C345.131 213.161 354.515 210.489 363.818 207.576C369.065 205.966 374.328 204.356 379.527 202.473C379.672 202.473 379.624 202.184 379.527 202.216C370.047 204.356 360.647 207.044 351.296 209.604C341.944 212.163 332.528 214.947 323.193 217.748C317.929 219.358 312.682 220.967 307.483 222.85C307.178 222.947 307.258 223.398 307.532 223.333Z" fill="#263238"/>
<path d="M307.773 203.069C306.454 203.198 305.134 203.471 303.83 203.729C303.731 203.757 303.64 203.811 303.567 203.884C303.494 203.957 303.44 204.048 303.412 204.147C301.963 209.105 300.933 214.207 299.903 219.261C298.873 224.315 297.987 229.24 297.166 234.262C296.716 236.95 296.329 239.67 296.024 242.31C294.381 245.594 293.382 249.161 293.078 252.82C293.078 252.863 293.095 252.904 293.125 252.934C293.155 252.964 293.196 252.981 293.239 252.981C293.282 252.981 293.323 252.964 293.353 252.934C293.383 252.904 293.4 252.863 293.4 252.82C293.803 249.573 294.642 246.395 295.895 243.372C295.082 249.998 295.261 256.709 296.426 263.282C294.816 253.464 297.231 243.227 298.84 233.57C299.645 228.741 300.563 223.913 301.512 219.084C302.462 214.255 303.572 209.507 304.458 204.694C305.584 204.26 306.727 203.841 307.806 203.326C307.824 203.309 307.838 203.288 307.846 203.264C307.855 203.24 307.858 203.214 307.855 203.189C307.852 203.164 307.843 203.14 307.828 203.119C307.814 203.098 307.795 203.081 307.773 203.069Z" fill="#263238"/>
<path d="M221.517 120.144C220.761 122.881 206.886 140.344 194.267 139.282C190.163 138.928 191.048 116.41 191.048 116.41L190.742 114.801L186.396 91.3171L214.387 74.7547L218.427 72.5657C218.427 72.5657 219.199 79.0039 220.036 87.1966C220.036 87.5668 220.117 87.937 220.149 88.3394C220.181 88.7418 220.278 89.2407 220.31 89.6592C220.471 90.8664 220.6 92.1058 220.728 93.3451C220.825 94.2787 220.905 95.1961 220.97 96.1779C221.034 97.1598 221.131 98.1416 221.211 99.1234C221.788 106.115 221.89 113.138 221.517 120.144Z" fill="#F7A9A0"/>
<path d="M220.068 87.1483C217.469 93.6012 213.497 99.4112 208.427 104.175C203.358 108.939 197.312 112.543 190.71 114.736L186.364 91.2527L214.387 74.7547L218.427 72.5657C218.427 72.5657 219.199 79.0361 220.068 87.1483Z" fill="#263238"/>
<path d="M156.829 53.251C152.499 94.9547 176.996 102.262 185.994 103.147C194.154 103.984 222.064 105.803 230.675 64.7594C239.286 23.7156 221.259 8.53748 202.685 5.62417C184.111 2.71087 161.158 11.5473 156.829 53.251Z" fill="#F7A9A0"/>
<path d="M170.88 43.5614C171.841 43.4974 172.797 43.3846 173.745 43.2234C174.773 43.2444 175.78 42.9278 176.61 42.3221C176.839 42.0824 176.981 41.773 177.013 41.4432C177.045 41.1135 176.966 40.7826 176.787 40.5033C176.349 40.0143 175.789 39.6497 175.165 39.4462C174.54 39.2428 173.873 39.2076 173.23 39.3444C171.881 39.4184 170.607 39.9922 169.657 40.954C169.472 41.1886 169.355 41.4702 169.321 41.7673C169.286 42.0644 169.335 42.3652 169.462 42.636C169.589 42.9067 169.789 43.1368 170.04 43.3002C170.29 43.4637 170.581 43.5541 170.88 43.5614Z" fill="#263238"/>
<path d="M200.786 43.3361C199.843 43.1222 198.913 42.8535 198.002 42.5314C196.984 42.3831 196.045 41.902 195.33 41.1632C195.149 40.8907 195.064 40.5661 195.087 40.24C195.111 39.9139 195.241 39.6046 195.459 39.3605C195.967 38.9407 196.578 38.6641 197.229 38.5594C197.879 38.4547 198.546 38.5257 199.161 38.765C200.466 39.0643 201.614 39.8389 202.38 40.9379C202.528 41.1972 202.602 41.4928 202.592 41.7916C202.582 42.0904 202.49 42.3805 202.324 42.6295C202.159 42.8785 201.927 43.0764 201.656 43.2012C201.384 43.3261 201.083 43.3728 200.786 43.3361Z" fill="#263238"/>
<path d="M193.334 55.8585C193.334 55.7619 193.543 56.0194 193.527 56.1321C193.157 58.9649 193.221 62.2807 195.7 63.4717C195.7 63.4717 195.7 63.6488 195.7 63.6327C192.545 62.8762 192.545 58.4821 193.334 55.8585Z" fill="#263238"/>
<path d="M196.167 53.1384C200.77 53.251 200.223 62.4416 195.958 62.3611C191.692 62.2807 192.304 53.0579 196.167 53.1384Z" fill="#263238"/>
<path d="M197.937 53.7339C198.709 54.2972 199.45 55.263 200.4 55.4239C201.349 55.5849 202.428 54.6835 203.216 53.8144C203.297 53.8144 203.361 53.8144 203.361 53.927C203.281 55.6976 202.508 57.4681 200.593 57.6129C198.677 57.7578 197.712 56.1321 197.374 54.3938C197.374 53.9753 197.631 53.5086 197.937 53.7339Z" fill="#263238"/>
<path d="M175.966 53.8305C175.966 53.7178 175.725 53.9431 175.725 54.0558C175.628 56.9208 175.033 60.1721 172.393 60.9447C172.297 60.9447 172.297 61.1057 172.393 61.1057C175.58 60.7998 176.321 56.4862 175.966 53.8305Z" fill="#263238"/>
<path d="M173.616 50.6113C169.061 49.9514 168.08 59.1259 172.297 59.7375C176.514 60.3492 177.447 51.1747 173.616 50.6113Z" fill="#263238"/>
<path d="M171.621 51.0137C170.832 51.4161 170.011 52.2209 169.158 52.1887C168.305 52.1565 167.548 51.0781 166.969 50.0641C166.969 49.9514 166.84 50.0641 166.824 50.1446C166.583 51.8829 166.969 53.7822 168.611 54.2972C170.252 54.8123 171.411 53.3798 172.007 51.6897C172.152 51.3678 171.959 50.8528 171.621 51.0137Z" fill="#263238"/>
<path d="M188.827 78.0704C188.135 78.7303 187.443 79.6799 186.396 79.6799C185.334 79.6542 184.29 79.3959 183.338 78.9234C183.319 78.9197 183.299 78.9211 183.281 78.9274C183.262 78.9336 183.246 78.9446 183.233 78.9592C183.22 78.9738 183.211 78.9916 183.207 79.0107C183.202 79.0298 183.203 79.0497 183.209 79.0683C183.606 79.64 184.152 80.0921 184.788 80.3758C185.423 80.6596 186.124 80.764 186.815 80.6779C187.401 80.537 187.932 80.2243 188.339 79.7798C188.746 79.3353 189.011 78.7793 189.1 78.1831C189.149 77.9738 188.923 77.9738 188.827 78.0704Z" fill="#263238"/>
<path d="M177.641 66.9323C177.641 66.9323 176.755 71.1493 176.611 73.1612C176.611 73.3383 177.077 73.4671 177.753 73.5636C177.753 73.5636 177.753 73.5636 177.834 73.5636C179.534 74.0014 181.322 73.9611 183 73.447C184.679 72.9329 186.183 71.9651 187.346 70.6503C187.507 70.4733 187.266 70.2479 187.073 70.3606C184.39 71.9245 181.275 72.5847 178.188 72.2438C178.075 71.6805 179.942 65.0813 179.637 65.033C178.066 65.0562 176.507 65.2945 175.001 65.7412C176.611 56.9208 179.588 48.4062 181.037 39.6019C181.058 39.5358 181.052 39.4638 181.021 39.402C180.989 39.3401 180.934 39.2933 180.868 39.272C180.802 39.2506 180.73 39.2565 180.668 39.2881C180.606 39.3198 180.559 39.3748 180.538 39.441C176.755 48.1165 174.711 58.2406 172.828 67.3186C172.571 68.4452 176.82 67.222 177.641 66.9323Z" fill="#263238"/>
<path d="M178.445 72.8233C179.438 74.4948 180.846 75.8811 182.534 76.8472C183.468 77.3536 184.54 77.5455 185.592 77.3944C187.893 77.0725 188.183 75.0445 187.974 73.2417C187.859 72.2901 187.633 71.3554 187.298 70.4572C184.675 72.1703 181.573 72.9994 178.445 72.8233Z" fill="#263238"/>
<path d="M182.534 76.8471C183.468 77.3536 184.54 77.5455 185.592 77.3944C187.894 77.0725 188.183 75.0444 187.974 73.2417C186.795 73.1487 185.618 73.4532 184.632 74.1067C183.646 74.7601 182.908 75.7249 182.534 76.8471Z" fill="#FF9CBD"/>
<path d="M228.937 62.345C219.28 61.6529 220.648 46.507 220.648 46.507C220.648 46.507 209.832 44.6238 210.492 26.983C210.492 26.983 204.375 37.1715 189.439 38.1051C186.219 38.3143 197.486 31.0713 197.486 31.0713C197.486 31.0713 182.389 40.954 159.452 34.725C157.843 34.2904 164.989 10.4529 183.95 3.56394C202.911 -3.32497 218.99 2.80743 229.34 15.2654C229.34 15.2654 242.216 22.5406 242.683 35.3527C243.15 48.1648 232.671 62.6186 228.937 62.345Z" fill="#263238"/>
<path d="M236.357 55.9068C239.556 50.6368 241.41 44.6618 241.758 38.507C242.106 32.3522 240.937 26.2061 238.353 20.6092C229.533 0.940355 197.889 -6.866 177.013 7.05668C177.013 7.05668 212.906 0.618442 225.042 16.8106C237.178 33.0028 236.357 55.9068 236.357 55.9068Z" fill="#F7B2B7"/>
<path d="M223.497 66.385C223.497 66.385 232.864 53.5086 238.739 56.7277C244.614 59.9468 237.436 78.9557 230.418 81.4183C229.541 81.7989 228.596 81.998 227.641 82.0038C226.685 82.0096 225.738 81.8218 224.857 81.4519C223.975 81.0819 223.178 80.5374 222.513 79.8512C221.848 79.1649 221.328 78.3511 220.986 77.4588L223.497 66.385Z" fill="#F7A9A0"/>
<path d="M236.55 62.1679C236.663 62.1679 236.679 62.3128 236.55 62.3611C231.625 64.2443 228.985 68.7993 227.102 73.4027C228.583 71.6322 230.579 70.6664 232.977 72.4369C233.106 72.5335 232.977 72.7267 232.832 72.6945C231.977 72.404 231.052 72.3874 230.186 72.647C229.321 72.9067 228.558 73.4296 228.004 74.1431C227.089 75.3349 226.302 76.6188 225.654 77.9738C225.412 78.4084 224.624 78.167 224.801 77.668V77.5553C224.849 71.3264 229.838 62.683 236.55 62.1679Z" fill="#263238"/>
</svg>
